<svg width="115" height="29" viewBox="0 0 115 29" fill="none" xmlns="http://www.w3.org/2000/svg">
<g id="Group 1000001806">
<path id="Vector" d="M53.7837 22.6541V26.1281C53.4934 26.1736 53.2059 26.1976 52.9156 26.1976C52.6254 26.1976 52.3378 26.1736 52.0476 26.1281V23.0365C52.0476 22.3519 51.7227 21.9909 51.0756 21.9909C50.6363 21.9909 50.3594 22.154 50.149 22.3038C50.1597 22.4188 50.173 22.5364 50.173 22.6514V26.1254C49.8827 26.1709 49.5951 26.1949 49.3049 26.1949C49.0147 26.1949 48.7271 26.1709 48.4475 26.1254V23.0339C48.4475 22.3492 48.112 21.9882 47.4649 21.9882C47.0842 21.9882 46.7833 22.0925 46.5729 22.2209V26.1254C46.2827 26.1709 45.9951 26.1949 45.7048 26.1949C45.4146 26.1949 45.1377 26.1709 44.8501 26.1254V21.3383C45.2442 21.0014 46.272 20.421 47.6274 20.421C48.4022 20.421 49.004 20.6189 49.4221 20.9425C49.8614 20.6644 50.4978 20.421 51.2381 20.421C52.9635 20.421 53.7837 21.3624 53.7837 22.6514" fill="#E1251B"/>
<path id="Vector_2" d="M58.958 23.3762C58.958 22.4696 58.4947 21.8786 57.6852 21.8786C56.8757 21.8786 56.4017 22.4723 56.4017 23.3762C56.4017 24.2801 56.8757 24.8765 57.6852 24.8765C58.4947 24.8765 58.958 24.2721 58.958 23.3762ZM54.6763 23.3762C54.6763 21.5977 55.9491 20.4237 57.6958 20.4237C59.4426 20.4237 60.6915 21.5737 60.6915 23.3762C60.6915 25.1787 59.4187 26.3153 57.6719 26.3153C55.9251 26.3153 54.6763 25.2001 54.6763 23.3762Z" fill="#E1251B"/>
<path id="Vector_3" d="M67.0332 22.7825V26.1281C66.7429 26.1736 66.4553 26.1976 66.1651 26.1976C65.8749 26.1976 65.5873 26.1736 65.297 26.1281V23.0606C65.297 22.269 64.8683 21.9909 64.2559 21.9909C63.8512 21.9909 63.5263 22.1059 63.3293 22.2235V26.1281C63.039 26.1736 62.7514 26.1976 62.4612 26.1976C62.171 26.1976 61.894 26.1736 61.6064 26.1281V21.341C62.0352 20.9586 63.0177 20.4237 64.3837 20.4237C66.2104 20.4237 67.0332 21.4239 67.0332 22.7825Z" fill="#E1251B"/>
<path id="Vector_4" d="M72.667 25.6875C72.273 26.0004 71.7191 26.3026 70.8857 26.3026C69.6235 26.3026 68.6756 25.7677 68.6756 24.4198V22.1199H67.7383C67.7037 21.8979 67.6797 21.6546 67.6797 21.4005C67.6797 21.1678 67.7037 20.9352 67.7383 20.7025H68.6756V19.2503C68.9765 19.2049 69.2667 19.1808 69.5543 19.1808C69.8419 19.1808 70.1214 19.2049 70.3877 19.2503V20.7025H72.3076C72.3528 20.9245 72.3875 21.1571 72.3875 21.3871C72.3875 21.6439 72.3528 21.8739 72.3076 22.1199H70.3877V23.9893C70.3877 24.6177 70.678 24.8263 71.1865 24.8263C71.5114 24.8263 71.7644 24.6632 71.9508 24.5001C72.2863 24.698 72.6111 25.2195 72.667 25.6848" fill="#E1251B"/>
<path id="Vector_5" d="M78.9221 20.7278C78.4482 24.2499 77.1061 26.8387 74.6298 28.6171C74.0972 28.4299 73.751 27.9191 73.5993 27.419C74.2117 26.9323 74.7549 26.4322 75.1037 25.9535C73.9827 24.2098 73.4715 22.6988 73.0454 20.7117C73.2877 20.6529 73.8203 20.5834 74.3076 20.5834C74.5153 20.5834 74.7576 20.5941 74.9546 20.6181C75.1623 21.8965 75.5431 23.2684 76.0197 24.3703C76.0783 24.4986 76.1129 24.6029 76.1342 24.6832C76.1582 24.5682 76.1928 24.4505 76.2274 24.3703C76.7014 23.2551 76.9677 21.8938 77.1301 20.6181C77.3511 20.5941 77.5934 20.5834 77.8118 20.5834C78.2165 20.5834 78.6106 20.6422 78.9221 20.7224" fill="#E1251B"/>
<path id="Vector_6" d="M89.4465 22.6753V26.1439C89.1589 26.1894 88.8686 26.2134 88.5811 26.2134C88.2935 26.2134 88.0032 26.1894 87.7157 26.1439V23.0604C87.7157 22.3757 87.3935 22.0174 86.7464 22.0174C86.3071 22.0174 86.0301 22.1805 85.8224 22.3303C85.8331 22.4453 85.8464 22.5629 85.8464 22.6779V26.1466C85.5588 26.192 85.2686 26.2161 84.981 26.2161C84.6934 26.2161 84.4032 26.192 84.1262 26.1466V23.063C84.1262 22.3784 83.7907 22.02 83.1437 22.02C82.7629 22.02 82.462 22.1243 82.2543 22.2527V26.1493C81.9667 26.1947 81.6765 26.2188 81.3889 26.2188C81.1013 26.2188 80.8244 26.1947 80.5342 26.1493V21.3702C80.9256 21.0332 81.9534 20.4529 83.3061 20.4529C84.081 20.4529 84.6801 20.6508 85.0955 20.9744C85.5348 20.6962 86.1686 20.4529 86.9088 20.4529C88.629 20.4529 89.4491 21.3916 89.4491 22.6806" fill="#E1251B"/>
<path id="Vector_7" d="M94.6104 23.3948C94.6104 22.4908 94.1498 21.8998 93.3403 21.8998C92.5308 21.8998 92.0595 22.4908 92.0595 23.3948C92.0595 24.2987 92.5335 24.8897 93.3403 24.8897C94.1471 24.8897 94.6104 24.2853 94.6104 23.3948ZM90.3394 23.3948C90.3394 21.6217 91.6095 20.4503 93.3536 20.4503C95.0977 20.4503 96.3439 21.5976 96.3439 23.3948C96.3439 25.1919 95.0738 26.3285 93.3296 26.3285C91.5855 26.3285 90.3394 25.216 90.3394 23.3948Z" fill="#E1251B"/>
<path id="Vector_8" d="M101.205 23.4044C101.205 22.5701 100.71 21.9656 99.8071 21.9656C99.5169 21.9656 99.2399 22.0111 98.987 22.1047V24.7363C99.2879 24.8299 99.5515 24.8646 99.8071 24.8646C100.696 24.8646 101.205 24.2977 101.205 23.4044ZM102.936 23.3349C102.936 25.2016 101.676 26.3275 99.6899 26.3275C98.7793 26.3275 97.9006 26.1296 97.2642 25.7953V18.5238C97.5517 18.4649 97.842 18.4542 98.1189 18.4542C98.3958 18.4542 98.6967 18.4649 98.9843 18.5238V20.6231C99.2506 20.5295 99.5488 20.4841 99.9189 20.4841C101.639 20.4841 102.933 21.4709 102.933 23.3376" fill="#E1251B"/>
<path id="Vector_9" d="M103.894 26.1461V20.6369C104.171 20.5914 104.458 20.5674 104.749 20.5674C105.039 20.5674 105.313 20.5914 105.614 20.6369V26.1461C105.337 26.1915 105.049 26.2156 104.749 26.2156C104.472 26.2156 104.184 26.1915 103.894 26.1461ZM103.721 18.8852C103.721 18.3182 104.181 17.8529 104.759 17.8529C105.337 17.8529 105.798 18.3156 105.798 18.8852C105.798 19.4548 105.324 19.9282 104.759 19.9282C104.195 19.9282 103.721 19.4522 103.721 18.8852Z" fill="#E1251B"/>
<path id="Vector_10" d="M106.851 26.1457V18.5505C107.117 18.505 107.404 18.481 107.692 18.481C107.98 18.481 108.28 18.505 108.581 18.5505V26.1457C108.315 26.1911 108.017 26.2152 107.727 26.2152C107.436 26.2152 107.149 26.1911 106.851 26.1457Z" fill="#E1251B"/>
<path id="Vector_11" d="M113.373 22.8491C113.373 22.3169 113.12 21.8275 112.414 21.7927C111.757 21.7927 111.376 22.2233 111.293 22.8491H113.37H113.373ZM114.944 23.8226H111.296C111.4 24.6008 111.826 24.9485 112.646 24.9485C113.338 24.9485 113.836 24.6703 114.262 24.3922C114.619 24.6703 114.84 25.1357 114.885 25.5636C114.401 25.9353 113.65 26.3391 112.46 26.3391C110.761 26.3391 109.539 25.2828 109.539 23.4401C109.539 21.6991 110.763 20.4823 112.401 20.4823C113.948 20.4823 115 21.4691 115 23.0096C115 23.2877 114.989 23.5418 114.941 23.8199" fill="#E1251B"/>
<path id="Vector_12" d="M23.913 11.1115C24.7092 10.3172 25.1086 9.35977 25.1086 8.23654C25.1086 7.11331 24.7092 6.1559 23.913 5.36161C23.1222 4.56466 22.1662 4.1635 21.0452 4.1635C19.9242 4.1635 18.9683 4.56198 18.1774 5.36161C17.3813 6.1559 16.9818 7.11331 16.9818 8.23654C16.9818 9.35977 17.3813 10.3172 18.1774 11.1115C18.9683 11.9111 19.9269 12.3096 21.0452 12.3096C22.1636 12.3096 23.1222 11.9111 23.913 11.1115ZM15.2936 13.9998C13.7093 12.4085 12.9185 10.4883 12.9185 8.23654C12.9185 5.98474 13.7093 4.07258 15.2936 2.48134C16.8833 0.890096 18.8005 0.0931396 21.0452 0.0931396C23.2899 0.0931396 25.2018 0.890096 26.7888 2.48134C28.3758 4.07258 29.172 5.99276 29.172 8.23654C29.172 10.4803 28.3785 12.4085 26.7888 13.9998C25.2018 15.5857 23.2873 16.3799 21.0452 16.3799C18.8032 16.3799 16.8833 15.5857 15.2936 13.9998Z" fill="#E1251B"/>
<path id="Vector_13" d="M59.7657 8.17006C59.7657 8.11924 59.7657 8.07111 59.763 8.02029V8.00692C59.7257 5.82732 58.9322 3.95795 57.3851 2.40148C55.7955 0.804892 53.8809 0.00793457 51.6336 0.00793457C49.3862 0.00793457 47.477 0.804892 45.89 2.40148C45.7702 2.52183 45.653 2.64485 45.5438 2.77054C45.4293 2.64485 45.3095 2.52183 45.1897 2.40148C43.6 0.804892 41.6855 0.00793457 39.4461 0.00793457C37.2067 0.00793457 35.2842 0.804892 33.6945 2.40148C32.1102 3.99539 31.3193 5.91825 31.3193 8.17006V16.3322H35.3827V8.17006C35.3827 7.04416 35.7795 6.08406 36.5783 5.28978C37.3691 4.49015 38.3251 4.089 39.4461 4.089C40.5671 4.089 41.5231 4.49015 42.3139 5.28978C43.1101 6.08406 43.5095 7.04416 43.5095 8.17006V16.3322H47.5729V8.17006C47.5729 7.04416 47.9723 6.08406 48.7684 5.28978C49.5593 4.49015 50.5152 4.089 51.6362 4.089C52.7573 4.089 53.7132 4.49015 54.504 5.28978C55.3002 6.08406 55.6996 7.04416 55.6996 8.17006H55.7023V10.5663H55.6996V16.3322H59.7683V10.5663H59.7657V8.17006Z" fill="#E1251B"/>
<path id="Vector_14" d="M114.964 8.0605C114.94 5.85416 114.149 3.96339 112.583 2.39355C110.996 0.799631 109.079 0 106.832 0C104.584 0 102.675 0.796957 101.088 2.39355C100.968 2.51389 100.851 2.63691 100.742 2.76261C100.628 2.63691 100.508 2.51389 100.388 2.39355C98.8009 0.799631 96.8864 0 94.6443 0C92.4023 0 90.4824 0.796957 88.8928 2.39355C87.3084 3.98746 86.5176 5.91032 86.5176 8.16212V16.3242H90.581V8.16212C90.581 7.03622 90.9804 6.07613 91.7765 5.28185C92.5674 4.48221 93.5233 4.08106 94.6443 4.08106C95.7654 4.08106 96.7213 4.48221 97.5121 5.28185C98.3083 6.07613 98.7077 7.03622 98.7077 8.16212V16.3242H102.771V8.16212C102.771 7.03622 103.171 6.07613 103.967 5.28185C104.758 4.48221 105.713 4.08106 106.834 4.08106C107.956 4.08106 108.911 4.48221 109.702 5.28185C110.498 6.07613 110.898 7.03622 110.898 8.16212V16.3242H114.967V8.06317L114.964 8.0605Z" fill="#E1251B"/>
<path id="Vector_15" d="M65.8853 0.133057H61.8086V16.3289H65.8853V0.133057Z" fill="#E1251B"/>
<path id="Vector_16" d="M10.9972 12.28H8.11345C8.11345 12.28 8.08149 12.28 8.06285 12.28C6.94982 12.28 6.00187 11.8842 5.21636 11.0899C4.42552 10.3009 4.03143 9.34887 4.03143 8.231C4.03143 7.11312 4.42552 6.16105 5.21636 5.37211C6.00187 4.57783 6.94982 4.18203 8.06285 4.18203C8.07883 4.18203 8.11078 4.17935 8.11078 4.17935H10.6164L13.897 0.133057H8.10812C8.09214 0.133057 8.07883 0.133057 8.06285 0.133057C5.83412 0.133057 3.9329 0.924665 2.35655 2.50788C0.785516 4.0911 0 5.99791 0 8.231C0 10.4641 0.785516 12.3789 2.35655 13.9621C3.9329 15.54 5.83412 16.3289 8.06285 16.3289C8.07883 16.3289 8.09481 16.3289 8.11078 16.3289H14.0008L10.9972 12.28Z" fill="#E1251B"/>
<path id="Vector_17" d="M84.4554 5.65303H80.3467V8.19367C80.3361 9.31154 79.934 10.2663 79.1405 11.0579C78.339 11.8656 77.3724 12.2721 76.2407 12.2721C75.1091 12.2721 74.1398 11.8682 73.341 11.0579C72.5368 10.2529 72.1321 9.28213 72.1321 8.14553V5.64233H68.0234V8.2418C68.0474 10.4802 68.8462 12.3951 70.4226 13.9836C72.0282 15.5909 73.9667 16.3959 76.2354 16.3959C78.5041 16.3959 80.4372 15.5909 82.0429 13.9836C83.6485 12.371 84.4527 10.4241 84.4527 8.14553V6.0729V5.65303H84.4554Z" fill="#E1251B"/>
<path id="Vector_18" d="M0.756225 26.0941H0V22.021H0.737586V23.0774H0.814806C1.04114 22.3446 1.56038 21.9167 2.28199 21.9167C3.08082 21.9167 3.47225 22.3955 3.54947 23.1363H3.62669C3.81841 22.3874 4.29504 21.9167 5.10186 21.9167C6.00454 21.9167 6.43058 22.5105 6.43058 23.3983V26.0914H5.67435V23.5802C5.67435 23.0213 5.43204 22.6041 4.7983 22.6041C4.06072 22.6041 3.59207 23.0667 3.59207 23.7647V26.0914H2.83585V23.5802C2.83585 23.0213 2.59353 22.6041 1.9598 22.6041C1.23819 22.6041 0.753563 23.0667 0.753563 23.7647V26.0914L0.756225 26.0941Z" fill="#E1251B"/>
<path id="Vector_19" d="M9.5239 24.5776V24.3503H8.33364C7.80375 24.3503 7.5002 24.5589 7.5002 24.9601C7.5002 25.2837 7.6999 25.5698 8.29903 25.5698C9.0446 25.5698 9.5239 25.1526 9.5239 24.575M9.55851 25.1232H9.48129C9.28159 25.7945 8.75969 26.1796 8.04074 26.1796C7.27652 26.1796 6.78125 25.8319 6.78125 25.0456C6.78125 24.3396 7.23392 23.8235 8.22181 23.8235H9.5239V23.4918C9.5239 22.8821 9.28958 22.5505 8.62921 22.5505C8.08334 22.5505 7.77712 22.8206 7.64931 23.3608L6.93835 23.187C7.10344 22.4034 7.68393 21.922 8.6585 21.922C9.78751 21.922 10.2828 22.4702 10.2828 23.4838V26.0913H9.56118V25.1232H9.55851Z" fill="#E1251B"/>
<path id="Vector_20" d="M11.62 26.0941H10.8638V22.021H11.6014V23.0774H11.6786C11.9049 22.3527 12.4428 21.9167 13.1458 21.9167C14.0484 21.9167 14.4558 22.5105 14.4558 23.3983V26.0914H13.6996V23.5802C13.6996 23.0213 13.4733 22.6041 12.8236 22.6041C12.102 22.6041 11.6173 23.0667 11.6173 23.7647V26.0914L11.62 26.0941Z" fill="#E1251B"/>
<path id="Vector_21" d="M17.5508 24.5776V24.3503H16.3605C15.8306 24.3503 15.5271 24.5589 15.5271 24.9601C15.5271 25.2837 15.7268 25.5698 16.3259 25.5698C17.0715 25.5698 17.5508 25.1526 17.5508 24.575M17.5854 25.1232H17.5081C17.3084 25.7945 16.7865 26.1796 16.0676 26.1796C15.3034 26.1796 14.8081 25.8319 14.8081 25.0456C14.8081 24.3396 15.2608 23.8235 16.2487 23.8235H17.5508V23.4918C17.5508 22.8821 17.3164 22.5505 16.6561 22.5505C16.1102 22.5505 15.804 22.8206 15.6762 23.3608L14.9652 23.187C15.1303 22.4034 15.7108 21.922 16.6827 21.922C17.8117 21.922 18.307 22.4702 18.307 23.4838V26.0913H17.5854V25.1232Z" fill="#E1251B"/>
<path id="Vector_22" d="M19.4076 23.4434C19.4076 23.9489 19.6845 24.2537 20.4221 24.2537C21.1597 24.2537 21.4632 23.9569 21.4632 23.4434C21.4632 22.9299 21.1064 22.6224 20.4034 22.6224C19.7005 22.6224 19.4049 22.954 19.4049 23.4434M21.9132 26.4173C21.9132 26.1552 21.7321 25.9546 21.2795 25.9546H19.8203C19.317 25.9546 19.0827 26.2247 19.0827 26.4788C19.0827 26.8452 19.3783 27.003 20.4806 27.003C21.6443 27.003 21.9132 26.8024 21.9132 26.42M20.454 27.5699C18.9256 27.5779 18.4756 27.2383 18.4756 26.6981C18.4756 26.3397 18.8217 26.0883 19.3863 25.9653V25.9225C19.0827 25.861 18.883 25.6952 18.883 25.409C18.883 25.2004 19.0561 25.0159 19.301 24.8849L19.6046 24.6923C19.0241 24.4917 18.7099 24.0478 18.7099 23.4461C18.7099 22.5207 19.3623 22.0233 20.4647 22.0233H22.4351V22.625H21.9478C21.7295 22.625 21.4712 22.6063 21.1064 22.5716V22.6491C21.6629 22.7614 22.1236 22.9995 22.1236 23.5905C22.1236 24.35 21.5324 24.802 20.4034 24.802C20.1425 24.802 19.9161 24.7752 19.7164 24.7137L19.6046 24.8956C19.5354 25.0079 19.4821 25.0881 19.4821 25.1737C19.4821 25.3475 19.6286 25.4171 19.9082 25.4171C20.3608 25.4171 20.8454 25.409 21.2875 25.409C22.1129 25.409 22.539 25.7674 22.539 26.3852C22.539 27.1875 22.0277 27.5699 20.4567 27.5619" fill="#E1251B"/>
<path id="Vector_23" d="M23.304 23.7328H25.6738C25.6392 22.9572 25.2824 22.5213 24.5368 22.5213C23.7913 22.5213 23.3892 22.9224 23.304 23.7328ZM22.5398 24.0911C22.5398 22.7299 23.3306 21.9196 24.5528 21.9196C25.775 21.9196 26.3768 22.6684 26.3768 23.7943C26.3768 23.9173 26.3688 24.0992 26.3502 24.281H23.2933C23.3546 25.1101 23.7886 25.562 24.5688 25.562C25.2984 25.562 25.5487 25.1956 25.6792 24.7437L26.3395 24.9255C26.1398 25.7011 25.6179 26.1905 24.5688 26.1905C23.3093 26.1905 22.5371 25.4417 22.5371 24.0885" fill="#E1251B"/>
<path id="Vector_24" d="M29.5779 24.2289V23.916C29.5779 23.1404 29.1173 22.6082 28.3877 22.6082C27.6581 22.6082 27.2507 23.0789 27.2507 24.0738C27.2507 25.0686 27.6155 25.5206 28.3877 25.5206C29.1093 25.5206 29.5779 25.0232 29.5779 24.2316M29.5779 25.0071H29.5247C29.325 25.7051 28.8217 26.2026 28.0575 26.2026C27.0669 26.2026 26.5024 25.4538 26.5024 24.0765C26.5024 22.6992 27.0829 21.9236 28.0735 21.9236C28.8723 21.9236 29.325 22.413 29.5247 23.1083H29.5779V20.5009H30.3342V26.0983H29.5779V25.0071Z" fill="#E1251B"/>
<path id="Vector_25" d="M35.289 24.0632C35.289 23.079 34.9322 22.6057 34.16 22.6057C33.4304 22.6057 32.9618 23.1111 32.9618 23.9134V24.2263C32.9618 24.9939 33.4304 25.5261 34.16 25.5261C34.8896 25.5261 35.289 25.0367 35.289 24.0605M32.9618 23.0924H33.023C33.2227 22.3944 33.6834 21.9157 34.4636 21.9157C35.4781 21.9157 36.0346 22.6832 36.0346 24.0605C36.0346 25.4378 35.4541 26.1973 34.4982 26.1973C33.7074 26.1973 33.2121 25.6919 33.0124 24.9939H32.9618V26.093H32.2056V20.4956H32.9618V23.0924Z" fill="#E1251B"/>
<path id="Vector_26" d="M35.9318 27.5431L36.0543 26.8451C36.2354 26.8798 36.4005 26.9066 36.5762 26.9066C37.0528 26.9066 37.3218 26.7836 37.644 26.0615L35.9238 22.0259H36.7573L37.2792 23.4834C37.4709 24.0156 37.7558 24.7912 37.9662 25.4277H38.0966C38.315 24.7724 38.5733 24.0236 38.7464 23.4914L39.2416 22.0259H40.0484L38.3283 26.1497C37.9023 27.1606 37.407 27.5966 36.5496 27.5966C36.2966 27.5966 36.1155 27.5698 35.9345 27.5431" fill="#E1251B"/>
<path id="Vector_27" d="M72.1343 2.16569C72.1343 1.02641 71.2157 0.10376 70.0813 0.10376C68.947 0.10376 68.0283 1.02641 68.0283 2.16569C68.0283 3.30496 68.947 4.22761 70.0813 4.22761C71.2157 4.22761 72.1343 3.30496 72.1343 2.16569Z" fill="#E1251B"/>
<path id="Vector_28" d="M84.4595 2.16569C84.4595 1.02641 83.5408 0.10376 82.4065 0.10376C81.2722 0.10376 80.3535 1.02641 80.3535 2.16569C80.3535 3.30496 81.2722 4.22761 82.4065 4.22761C83.5408 4.22761 84.4595 3.30496 84.4595 2.16569Z" fill="#E1251B"/>
</g>
</svg>
