<svg width="106" height="69" viewBox="0 0 106 69" fill="none" xmlns="http://www.w3.org/2000/svg">
<g id="Monty Capital Logo-2-03 1" clip-path="url(#clip0_1543_3539)">
<g id="Group">
<g id="Group_2">
<path id="Vector" d="M8.53915 60.6764L8.47749 54.0811L6.48897 60.6764H4.30006L2.32695 54.0811L2.24987 60.6764H-0.0161133L0.292184 50.9142H3.39058L5.45617 57.7861L7.53718 50.9142H10.6202L10.9439 60.6764H8.53915Z" fill="#5B6670"/>
<path id="Vector_2" d="M21.7279 55.7876C21.7279 56.5563 21.6146 57.2508 21.3888 57.8712C21.163 58.4916 20.8366 59.0188 20.4104 59.4547C19.9833 59.8906 19.4701 60.2288 18.8689 60.4693C18.2677 60.7099 17.5922 60.8311 16.8414 60.8311C16.0915 60.8311 15.4132 60.7108 14.8066 60.4693C14.2 60.2288 13.6868 59.8906 13.2651 59.4547C12.8435 59.0188 12.5171 58.4916 12.2858 57.8712C12.0546 57.2508 11.9395 56.5563 11.9395 55.7876C11.9395 55.019 12.0546 54.3271 12.2858 53.7122C12.5171 53.0973 12.8435 52.5691 13.2651 52.1287C13.6868 51.6883 14.2 51.3501 14.8066 51.1141C15.4132 50.8781 16.0915 50.7605 16.8414 50.7605C17.5913 50.7605 18.2668 50.8781 18.8689 51.1141C19.4701 51.3501 19.9833 51.6883 20.4104 52.1287C20.8366 52.5691 21.163 53.0973 21.3888 53.7122C21.6146 54.3271 21.7279 55.019 21.7279 55.7876ZM19.2307 55.7569C19.2307 55.3264 19.1817 54.9294 19.0847 54.565C18.9868 54.2014 18.8381 53.8858 18.6377 53.62C18.4373 53.3532 18.1879 53.1434 17.8905 52.9897C17.5922 52.8359 17.2431 52.7591 16.8423 52.7591C16.4415 52.7591 16.0924 52.8359 15.7941 52.9897C15.4958 53.1434 15.2464 53.3532 15.046 53.62C14.8456 53.8867 14.6942 54.2014 14.5908 54.565C14.4883 54.9285 14.4367 55.3264 14.4367 55.7569C14.4367 56.1874 14.4883 56.5871 14.5908 56.956C14.6933 57.325 14.8456 57.6424 15.046 57.9092C15.2464 58.176 15.4958 58.3858 15.7941 58.5395C16.0924 58.6932 16.4415 58.7701 16.8423 58.7701C17.2431 58.7701 17.5922 58.6932 17.8905 58.5395C18.1888 58.3858 18.4373 58.176 18.6377 57.9092C18.8381 57.6424 18.9868 57.325 19.0847 56.956C19.1817 56.5871 19.2307 56.1874 19.2307 55.7569Z" fill="#5B6670"/>
<path id="Vector_3" d="M28.9912 60.6764L25.2453 54.3732V60.6764H22.9331V50.9142H25.4766L29.0528 56.8791V50.9142H31.3496V60.6764H28.9912Z" fill="#5B6670"/>
<path id="Vector_4" d="M37.2134 52.8205V60.6764H34.7778V52.8205H32.1265V50.9142H39.8647V52.8205H37.2134Z" fill="#5B6670"/>
<path id="Vector_5" d="M45.9919 56.7407V60.6764H43.5563V56.7407L40.165 50.9142H42.8626L44.7741 54.8498L46.6855 50.9142H49.3677L45.9919 56.7407Z" fill="#5B6670"/>
<path id="Vector_6" d="M60.9137 59.1698C60.6879 59.4772 60.3996 59.754 60.0505 59.9999C59.7522 60.2052 59.3695 60.3942 58.9016 60.5688C58.4337 60.7433 57.8661 60.8301 57.1978 60.8301C56.5296 60.8301 55.903 60.7225 55.3172 60.5073C54.7315 60.292 54.22 59.9719 53.783 59.5469C53.3459 59.1218 53.0023 58.5964 52.7502 57.9715C52.4981 57.3467 52.3721 56.6187 52.3721 55.7885C52.3721 54.9583 52.5081 54.2303 52.781 53.6055C53.053 52.9806 53.4185 52.4579 53.8755 52.0374C54.3325 51.6169 54.8539 51.2994 55.4396 51.0842C56.0254 50.869 56.632 50.7614 57.2586 50.7614C57.8852 50.7614 58.4274 50.8464 58.8844 51.0146C59.3414 51.1837 59.7168 51.3682 60.0097 51.568C60.3026 51.7679 60.5211 51.9551 60.6644 52.1296C60.8085 52.3041 60.8856 52.3964 60.8956 52.4063L59.6932 54.0359C59.5391 53.8207 59.3487 53.6263 59.1229 53.4517C58.9279 53.3079 58.6885 53.175 58.4065 53.052C58.1236 52.929 57.7927 52.8675 57.4127 52.8675C57.0428 52.8675 56.7009 52.9344 56.3872 53.0674C56.0735 53.2003 55.8041 53.3929 55.5784 53.6443C55.3526 53.8957 55.1776 54.1978 55.0543 54.5514C54.9309 54.905 54.8693 55.302 54.8693 55.7433C54.8693 56.635 55.1005 57.3421 55.563 57.8648C56.0254 58.3875 56.6366 58.6489 57.3973 58.6489C57.7773 58.6489 58.1091 58.5874 58.392 58.4644C58.6749 58.3414 58.9189 58.2085 59.1238 58.0647C59.3496 57.8901 59.55 57.6957 59.725 57.4805L60.9137 59.1698Z" fill="#5B6670"/>
<path id="Vector_7" d="M67.9905 60.6764L67.4202 58.8316H63.9673L63.3969 60.6764H60.9922L64.3064 50.9142H67.266L70.5802 60.6764H67.9905ZM65.6937 53.2048L64.5222 56.9406H66.8653L65.6937 53.2048Z" fill="#5B6670"/>
<path id="Vector_8" d="M78.736 54.1888C78.736 54.8038 78.6408 55.3138 78.4513 55.7189C78.2608 56.1241 77.9861 56.4596 77.6261 56.7264C77.4411 56.8593 77.2353 56.9723 77.0095 57.0646C76.7837 57.1568 76.5471 57.2337 76.3004 57.2952C76.0538 57.3567 75.8099 57.4001 75.5687 57.4254C75.3266 57.4507 75.1035 57.4643 74.8977 57.4643H73.6953V60.6773H71.2598V50.9152H74.8977C75.3601 50.9152 75.8407 50.9712 76.3394 51.0843C76.8381 51.1973 77.267 51.3863 77.6261 51.6531C77.9861 51.9199 78.2608 52.2554 78.4513 52.6605C78.6408 53.0638 78.736 53.5739 78.736 54.1888ZM76.3004 54.1888C76.3004 53.9021 76.2569 53.6688 76.1699 53.4898C76.0828 53.3107 75.9513 53.1597 75.7772 53.0358C75.6022 52.9029 75.4227 52.8233 75.2377 52.798C75.0527 52.7726 74.8215 52.76 74.544 52.76H73.6962V55.6348H74.544C74.8215 55.6348 75.05 55.6195 75.2305 55.5887C75.41 55.558 75.5877 55.4811 75.7627 55.3581C75.9377 55.2252 76.071 55.0687 76.1635 54.8888C76.2542 54.7097 76.3004 54.4764 76.3004 54.1888Z" fill="#5B6670"/>
<path id="Vector_9" d="M79.6836 60.6764V50.9142H82.1346V60.6764H79.6836Z" fill="#5B6670"/>
<path id="Vector_10" d="M87.9966 52.8205V60.6764H85.561V52.8205H82.9097V50.9142H90.6479V52.8205H87.9966Z" fill="#5B6670"/>
<path id="Vector_11" d="M96.494 60.6764L95.9236 58.8316H92.4707L91.9003 60.6764H89.4956L92.8098 50.9142H95.7695L99.0837 60.6764H96.494ZM94.1962 53.2048L93.0247 56.9406H95.3678L94.1962 53.2048Z" fill="#5B6670"/>
<path id="Vector_12" d="M99.7627 60.6764V50.9142H102.198V58.7086H105.99V60.6764H99.7627Z" fill="#5B6670"/>
<path id="Vector_13" d="M24.3194 65.9235V67.0358H25.685V67.4428H24.3194V68.9674H23.8135V65.522H25.8102V65.9235H24.3194Z" fill="#5B6670"/>
<path id="Vector_14" d="M26.9146 68.9674V65.522H27.4205V68.9674H26.9146Z" fill="#5B6670"/>
<path id="Vector_15" d="M31.1074 68.9674L29.3229 66.2002V68.9674H28.855V65.522H29.4154L31.1128 68.159V65.522H31.5861V68.9674H31.1074Z" fill="#5B6670"/>
<path id="Vector_16" d="M35.1985 68.9674L34.8938 68.1047H33.4195L33.1148 68.9674H32.6143L33.8819 65.522H34.4695L35.7371 68.9674H35.1985ZM34.1594 65.9886L33.55 67.7032H34.7633L34.1594 65.9886Z" fill="#5B6670"/>
<path id="Vector_17" d="M39.019 68.9674L37.2345 66.2002V68.9674H36.7666V65.522H37.327L39.0244 68.159V65.522H39.4978V68.9674H39.019Z" fill="#5B6670"/>
<path id="Vector_18" d="M43.317 66.4334C43.2626 66.3357 43.1919 66.2489 43.1048 66.173C43.0323 66.1079 42.9362 66.0482 42.8165 65.9939C42.6968 65.9397 42.5535 65.9125 42.3867 65.9125C42.2199 65.9125 42.0675 65.9442 41.9297 66.0075C41.7919 66.0708 41.674 66.1612 41.5761 66.2788C41.4781 66.3963 41.402 66.5365 41.3476 66.6993C41.2931 66.8621 41.2659 67.0411 41.2659 67.2365C41.2659 67.4318 41.2922 67.6108 41.3448 67.7736C41.3974 67.9364 41.4718 68.0766 41.5679 68.1941C41.664 68.3117 41.7801 68.4021 41.9161 68.4654C42.0521 68.5287 42.2035 68.5604 42.3704 68.5604C42.5372 68.5604 42.6823 68.5333 42.8056 68.479C42.9289 68.4247 43.0305 68.3632 43.1103 68.2945C43.2046 68.2185 43.2826 68.1299 43.3442 68.0286L43.638 68.3542C43.5619 68.4808 43.4639 68.5911 43.3442 68.6852C43.239 68.7684 43.1048 68.8443 42.9416 68.9131C42.7784 68.9818 42.5807 69.0162 42.3486 69.0162C42.1165 69.0162 41.9025 68.9755 41.7066 68.8941C41.5108 68.8127 41.3412 68.696 41.1979 68.5441C41.0547 68.3922 40.9431 68.2068 40.8633 67.988C40.7836 67.7691 40.7437 67.5204 40.7437 67.2419C40.7437 66.9634 40.7872 66.7147 40.8742 66.4958C40.9613 66.277 41.0791 66.0916 41.2279 65.9397C41.3766 65.7877 41.5498 65.672 41.7474 65.5924C41.9451 65.5128 42.1528 65.473 42.3704 65.473C42.588 65.473 42.7748 65.5047 42.9308 65.568C43.0867 65.6313 43.2155 65.7009 43.317 65.7769C43.4186 65.8528 43.4929 65.9252 43.5401 65.9939C43.5872 66.0626 43.6144 66.1024 43.6217 66.1133L43.317 66.4334Z" fill="#5B6670"/>
<path id="Vector_19" d="M44.7568 68.9674V65.522H45.2628V68.9674H44.7568Z" fill="#5B6670"/>
<path id="Vector_20" d="M48.8728 68.9674L48.5682 68.1047H47.0938L46.7891 68.9674H46.2886L47.5562 65.522H48.1438L49.4114 68.9674H48.8728ZM47.8337 65.9886L47.2243 67.7032H48.4376L47.8337 65.9886Z" fill="#5B6670"/>
<path id="Vector_21" d="M50.4404 68.9674V65.522H50.9464V68.5497H52.3501V68.9674H50.4404Z" fill="#5B6670"/>
<path id="Vector_22" d="M57.2356 68.9674L56.931 68.1047H55.4566L55.1519 68.9674H54.6514L55.919 65.522H56.5066L57.7742 68.9674H57.2356ZM56.1965 65.9886L55.5871 67.7032H56.8004L56.1965 65.9886Z" fill="#5B6670"/>
<path id="Vector_23" d="M61.6442 67.242C61.6442 67.5422 61.5952 67.8 61.4973 68.0152C61.3993 68.2304 61.2778 68.4068 61.1327 68.5442C60.9913 68.6817 60.8245 68.7866 60.6322 68.8589C60.44 68.9313 60.2097 68.9674 59.9413 68.9674H58.8042V65.522H59.9413C60.2097 65.522 60.4391 65.5581 60.6295 65.6305C60.8199 65.7028 60.9877 65.8077 61.1327 65.9452C61.2742 66.0826 61.3948 66.259 61.4946 66.4742C61.5943 66.6894 61.6442 66.9454 61.6442 67.242ZM61.1219 67.242C61.1219 67.0286 61.0901 66.836 61.0267 66.6641C60.9632 66.4923 60.8771 66.3521 60.7682 66.2436C60.5542 66.0302 60.2768 65.9235 59.9358 65.9235H59.3047V68.5551H59.9358C60.2804 68.5551 60.5579 68.4502 60.7682 68.2404C60.8771 68.1318 60.9632 67.9917 61.0267 67.8199C61.0901 67.648 61.1219 67.4554 61.1219 67.242Z" fill="#5B6670"/>
<path id="Vector_24" d="M64.1186 68.9674H63.5746L62.3613 65.522H62.8999L63.8629 68.4249L64.8313 65.522H65.3319L64.1186 68.9674Z" fill="#5B6670"/>
<path id="Vector_25" d="M66.3838 68.9674V65.522H66.8898V68.9674H66.3838Z" fill="#5B6670"/>
<path id="Vector_26" d="M70.4391 67.996C70.4391 68.1516 70.4092 68.2917 70.3493 68.4165C70.2895 68.5413 70.207 68.6471 70.1018 68.734C70.0002 68.8172 69.8787 68.885 69.7373 68.9374C69.5958 68.9899 69.4217 69.0161 69.215 69.0161C69.0663 69.0161 68.9285 68.9971 68.8015 68.9591C68.6746 68.9212 68.5603 68.8741 68.4587 68.8181C68.3572 68.762 68.2692 68.7032 68.1949 68.6417C68.1205 68.5802 68.0616 68.526 68.0181 68.4789L68.301 68.1317C68.3227 68.1534 68.3608 68.1905 68.4152 68.2429C68.4696 68.2954 68.5358 68.3469 68.6138 68.3975C68.6918 68.4482 68.7816 68.4934 68.8831 68.5332C68.9847 68.573 69.0953 68.5929 69.215 68.5929C69.4544 68.5929 69.6357 68.5431 69.759 68.4437C69.8824 68.3442 69.944 68.2131 69.944 68.0503C69.944 67.9707 69.9277 67.9029 69.8951 67.8468C69.8624 67.7907 69.8225 67.7428 69.7754 67.703C69.7282 67.6632 69.6783 67.6316 69.6257 67.6081C69.5732 67.5846 69.5287 67.5638 69.4925 67.5457C69.4526 67.5312 69.4009 67.5104 69.3374 67.4833C69.2739 67.4561 69.2077 67.4299 69.1388 67.4046C69.0699 67.3793 69.0064 67.3549 68.9484 67.3314C68.8904 67.3078 68.8487 67.2907 68.8233 67.2798C68.7725 67.2581 68.7117 67.2283 68.641 67.1903C68.5703 67.1523 68.5023 67.1026 68.437 67.0411C68.3644 66.9796 68.3028 66.8973 68.252 66.7942C68.2012 66.6911 68.1758 66.5636 68.1758 66.4117C68.1758 66.2525 68.2085 66.1132 68.2738 65.9939C68.3391 65.8745 68.4225 65.7768 68.524 65.7009C68.622 65.6285 68.7362 65.5715 68.8668 65.5299C68.9974 65.4883 69.1497 65.4675 69.3238 65.4675C69.4689 65.4675 69.6022 65.4856 69.7237 65.5218C69.8452 65.558 69.9522 65.6014 70.0447 65.652C70.1372 65.7027 70.2142 65.7551 70.2759 65.8094C70.3376 65.8636 70.3829 65.907 70.4119 65.9396L70.1671 66.2814C70.1381 66.2489 70.0955 66.2091 70.0392 66.1621C69.983 66.115 69.9177 66.0698 69.8434 66.0264C69.769 65.983 69.6874 65.9468 69.5986 65.9179C69.5097 65.889 69.4163 65.8745 69.3184 65.8745C69.1189 65.8745 68.9602 65.9161 68.8423 65.9993C68.7244 66.0825 68.6655 66.2037 68.6655 66.3628C68.6655 66.4424 68.6791 66.5093 68.7063 66.5636C68.7335 66.6178 68.7689 66.664 68.8124 66.7019C68.8559 66.7399 68.9031 66.7707 68.9538 66.7942C69.0046 66.8177 69.0554 66.8403 69.1062 66.862L69.7808 67.1279C69.8461 67.1568 69.9132 67.1894 69.9821 67.2255C70.051 67.2617 70.1163 67.3105 70.178 67.372C70.2614 67.4552 70.3258 67.5466 70.3711 67.6461C70.4164 67.7455 70.4391 67.8622 70.4391 67.996Z" fill="#5B6670"/>
<path id="Vector_27" d="M74.7469 67.2419C74.7469 67.5023 74.7079 67.7411 74.6299 67.9581C74.5519 68.1751 74.4413 68.3623 74.298 68.5197C74.1548 68.677 73.9807 68.7991 73.7757 68.8859C73.5708 68.9728 73.3432 69.0162 73.093 69.0162C72.8427 69.0162 72.6151 68.9728 72.4102 68.8859C72.2052 68.7991 72.0302 68.677 71.8852 68.5197C71.7401 68.3623 71.6285 68.1751 71.5506 67.9581C71.4726 67.7411 71.4336 67.5023 71.4336 67.2419C71.4336 66.9814 71.4726 66.7436 71.5506 66.5284C71.6285 66.3131 71.7401 66.1268 71.8852 65.9695C72.0302 65.8121 72.2052 65.6901 72.4102 65.6032C72.6151 65.5164 72.8427 65.473 73.093 65.473C73.3432 65.473 73.5708 65.5164 73.7757 65.6032C73.9807 65.6901 74.1548 65.8121 74.298 65.9695C74.4413 66.1268 74.5519 66.3131 74.6299 66.5284C74.7079 66.7436 74.7469 66.9814 74.7469 67.2419ZM74.2246 67.2419C74.2246 67.0466 74.1983 66.8666 74.1457 66.702C74.0931 66.5374 74.0178 66.3954 73.9199 66.2761C73.822 66.1567 73.7032 66.0636 73.5636 65.9966C73.4239 65.9297 73.2671 65.8963 73.093 65.8963C72.9152 65.8963 72.7565 65.9297 72.6169 65.9966C72.4773 66.0636 72.3585 66.1567 72.2606 66.2761C72.1626 66.3954 72.0874 66.5365 72.0348 66.6993C71.9822 66.8621 71.9559 67.0411 71.9559 67.2365C71.9559 67.4318 71.9822 67.6117 72.0348 67.7763C72.0874 67.9409 72.1626 68.0829 72.2606 68.2023C72.3585 68.3217 72.4773 68.4148 72.6169 68.4817C72.7565 68.5486 72.9152 68.5821 73.093 68.5821C73.2671 68.5821 73.4239 68.5486 73.5636 68.4817C73.7032 68.4148 73.822 68.3217 73.9199 68.2023C74.0178 68.0829 74.0931 67.9418 74.1457 67.7791C74.1983 67.6163 74.2246 67.4372 74.2246 67.2419Z" fill="#5B6670"/>
<path id="Vector_28" d="M77.9053 68.9674L77.0076 67.5513H76.4962V68.9674H75.9902V65.522H77.1164C77.2796 65.522 77.4311 65.5419 77.5707 65.5817C77.7103 65.6214 77.8309 65.6829 77.9325 65.7661C78.0413 65.8493 78.1284 65.956 78.1936 66.0863C78.2589 66.2165 78.2916 66.363 78.2916 66.5258C78.2916 66.6596 78.2698 66.7799 78.2263 66.8866C78.1828 66.9933 78.1257 67.0864 78.0549 67.166C77.9842 67.2456 77.9035 67.3125 77.8128 67.3668C77.7221 67.421 77.6278 67.4608 77.5299 67.4862L78.4983 68.9674H77.9053ZM77.7856 66.5366C77.7856 66.4317 77.7629 66.3359 77.7176 66.249C77.6723 66.1622 77.6133 66.0935 77.5408 66.0429C77.4682 65.9922 77.3921 65.9588 77.3123 65.9425C77.2325 65.9262 77.1346 65.9181 77.0185 65.9181H76.4962V67.1606H77.0185C77.1346 67.1606 77.2325 67.1525 77.3123 67.1362C77.3921 67.1199 77.4682 67.0865 77.5408 67.0358C77.6133 66.9852 77.6723 66.9164 77.7176 66.8296C77.7629 66.7428 77.7856 66.6451 77.7856 66.5366Z" fill="#5B6670"/>
<path id="Vector_29" d="M80.777 67.5459V68.9674H80.2764V67.5459L79.085 65.522H79.6453L80.5321 67.1443L81.419 65.522H81.963L80.777 67.5459Z" fill="#5B6670"/>
</g>
</g>
<g id="Group_3">
<g id="Group_4">
<path id="Vector_30" d="M35.6938 31.7778C35.5224 31.8067 35.3764 31.833 35.2295 31.8547C34.1414 32.0202 33.0778 31.9406 32.0568 31.5092C31.004 31.0643 30.187 30.3535 29.6638 29.3289C29.4553 28.9201 29.3184 28.4888 29.2649 28.0312C29.2603 27.9887 29.2576 27.9435 29.2404 27.9064C29.1452 27.7029 29.1878 27.4886 29.1842 27.2779C29.1842 27.2697 29.1842 27.2607 29.1869 27.2526C29.2975 26.9785 29.3002 26.6801 29.3846 26.3989C29.5723 25.7749 29.8769 25.2169 30.2859 24.7114C30.5742 24.356 30.9088 24.0494 31.2552 23.7528C31.7113 23.364 32.1647 22.9706 32.6108 22.5691C32.9273 22.2842 33.2356 21.9912 33.5348 21.6892C33.9936 21.227 34.437 20.7496 34.8142 20.2169C34.9865 19.9736 35.147 19.7231 35.2486 19.4401C35.273 19.3732 35.293 19.3044 35.2767 19.214C35.2277 19.2258 35.1878 19.2321 35.1497 19.2448C34.6311 19.4193 34.0997 19.5378 33.5557 19.5993C32.9753 19.6644 32.3986 19.6544 31.831 19.5007C31.3432 19.3677 30.9134 19.1362 30.5878 18.7392C30.333 18.4272 30.1698 18.0691 30.0646 17.6839C29.8923 17.0536 29.8543 16.4115 29.9059 15.7631C29.9132 15.6718 29.9214 15.5804 29.9286 15.4891C29.9386 15.4864 29.9495 15.4837 29.9595 15.4819C29.9939 15.5325 30.0311 15.5822 30.0637 15.6338C30.3702 16.1176 30.7828 16.4811 31.3042 16.7208C31.6433 16.8772 32.0006 16.9749 32.3696 17.0265C32.7115 17.0735 33.0551 17.1024 33.3988 17.1368C33.8313 17.1802 34.2647 17.2109 34.6954 17.267C35.069 17.3149 35.4281 17.4244 35.76 17.6106C36.2088 17.8629 36.5108 18.2419 36.7139 18.7076C36.8789 19.0865 36.9179 19.4763 36.8236 19.8796C36.7456 20.2124 36.5924 20.509 36.4002 20.7875C36.1045 21.2171 35.7518 21.5987 35.3683 21.9496C34.7435 22.5211 34.107 23.08 33.484 23.6533C32.9499 24.1444 32.4512 24.6671 32.0568 25.2802C31.7539 25.7514 31.5372 26.256 31.4846 26.8194C31.4293 27.4135 31.5426 27.9625 31.9452 28.4264C32.1638 28.6778 32.4358 28.8595 32.7369 28.9979C33.2102 29.2158 33.7125 29.3207 34.2276 29.3804C34.8097 29.4474 35.3927 29.4365 35.9767 29.4058C35.9939 29.4048 36.0112 29.4039 36.0275 29.403C36.1726 29.3904 36.1852 29.3795 36.2224 29.2339C36.2913 28.9626 36.3621 28.6913 36.4283 28.4182C36.4546 28.3106 36.5099 28.2392 36.6151 28.1949C37.2117 27.9435 37.8029 27.6794 38.4032 27.437C39.2283 27.1033 40.0671 26.8031 40.9149 26.5309C41.8443 26.2325 42.7828 25.9693 43.744 25.7894C43.8528 25.7686 43.9616 25.746 44.0713 25.7333C44.1674 25.7224 44.2354 25.6763 44.2962 25.604C44.6263 25.2097 44.9581 24.8154 45.2918 24.4238C45.6754 23.9744 46.0617 23.5258 46.4498 23.08C46.8514 22.6179 47.255 22.1567 47.6621 21.6991C47.9958 21.3238 48.3295 20.9485 48.674 20.5841C49.1564 20.074 49.647 19.5721 50.1393 19.072C50.4431 18.7637 50.7831 18.5032 51.1975 18.3522C51.3372 18.3006 51.4723 18.2364 51.6128 18.1876C52.321 17.9416 53.0274 17.6893 53.7401 17.4587C54.5181 17.2064 55.3024 16.974 56.085 16.7371C56.5374 16.6005 56.9926 16.4721 57.4469 16.3392C57.495 16.3247 57.5421 16.3075 57.592 16.2903C57.5838 16.2279 57.5394 16.2162 57.504 16.1972C57.0507 15.953 56.5973 15.707 56.1421 15.4665C55.7014 15.2332 55.2598 15.0035 54.8155 14.7774C54.7103 14.724 54.6351 14.6481 54.5906 14.5441C54.4664 14.2556 54.3422 13.9662 54.2252 13.675C54.1527 13.4932 54.0937 13.307 54.0302 13.1216C53.9867 12.995 53.9913 12.9868 54.1155 12.929C54.1926 12.8928 54.2705 12.8584 54.3476 12.8222C54.354 12.8195 54.3558 12.8087 54.3685 12.7861C54.3231 12.7671 54.2796 12.7445 54.2343 12.73C54.0357 12.6658 53.8362 12.6043 53.6376 12.541C53.5207 12.5039 53.5107 12.4958 53.5188 12.3683C53.5352 12.0925 53.5488 11.8166 53.5769 11.5417C53.6195 11.123 53.6694 10.7052 53.7256 10.2892C53.7637 10.0116 53.8217 9.73668 53.9196 9.47172C53.9713 9.33064 54.0593 9.24111 54.2116 9.22303C54.461 9.19409 54.7103 9.15249 54.9606 9.14164C55.4711 9.11994 55.9825 9.11541 56.4939 9.10275C56.5501 9.10094 56.6063 9.0928 56.6626 9.08738C56.6653 9.07834 56.668 9.06839 56.6698 9.05935C56.6363 9.0295 56.6027 8.99966 56.5683 8.97072C56.3316 8.77629 56.0958 8.58096 55.9009 8.34131C55.4312 7.76345 55.2716 7.11053 55.4221 6.38164C55.5146 5.934 55.705 5.52796 55.9489 5.14452C56.1394 4.8461 56.3588 4.57118 56.6009 4.31164C57.2057 3.66414 57.9066 3.14506 58.6955 2.74354C58.9485 2.61422 59.1707 2.44421 59.3593 2.23169C59.6494 1.90433 59.7428 1.52993 59.6213 1.10671C59.5733 0.937602 59.5016 0.779346 59.4046 0.632845C59.2849 0.451076 59.158 0.275638 58.9993 0.12552C58.9694 0.0974859 58.944 0.0649262 58.9023 0.01971C58.944 0.01971 58.9648 0.0151893 58.982 0.0206152C59.4055 0.141795 59.7963 0.319951 60.1064 0.646412C60.3594 0.913188 60.4972 1.22789 60.5498 1.58691C60.5843 1.82565 60.5716 2.06168 60.5362 2.2977C60.4682 2.74625 60.2225 3.08085 59.8589 3.33497C59.6213 3.50046 59.3774 3.656 59.1371 3.81787C58.7291 4.09189 58.3836 4.4283 58.1288 4.85152C57.9139 5.20783 57.7579 5.58945 57.6709 5.99549C57.6083 6.28849 57.6827 6.55979 57.8423 6.81029C58.0254 7.09877 58.2693 7.32756 58.5368 7.53375C58.9875 7.88191 59.4862 8.1505 59.9967 8.39738C60.6305 8.70394 61.2879 8.94992 61.949 9.19138C62.1829 9.27729 62.4214 9.29266 62.6626 9.31165C63.3164 9.36229 63.971 9.4066 64.6239 9.46448C65.294 9.52417 65.9623 9.60375 66.6324 9.66343C67.1764 9.71136 67.7205 9.71046 68.2663 9.67971C69.0054 9.63811 69.7326 9.52236 70.4462 9.33516C71.2641 9.11993 72.062 8.84774 72.7929 8.41185C73.0722 8.24545 73.3315 8.05374 73.5391 7.79962C73.7078 7.59253 73.8248 7.36283 73.8311 7.09334C73.8347 6.94594 73.8175 6.79582 73.7921 6.65022C73.7214 6.24237 73.6144 5.84628 73.4213 5.4755C73.2163 5.08212 72.947 4.7412 72.6179 4.44458C72.3495 4.20222 72.0784 3.96257 71.8199 3.70936C71.43 3.32774 71.3049 2.85115 71.352 2.32122C71.3738 2.07434 71.4219 1.83379 71.5198 1.60409C71.6857 1.21342 71.9614 0.923136 72.3286 0.714236C72.6532 0.529754 73.006 0.442035 73.3732 0.397723C73.3904 0.395914 73.4077 0.395913 73.424 0.396818C73.4312 0.397722 73.4385 0.403145 73.4575 0.411284C73.4294 0.434797 73.4059 0.456502 73.3805 0.474588C73.122 0.664496 72.8845 0.876111 72.6968 1.13837C72.5825 1.29843 72.4909 1.47025 72.4365 1.66106C72.3078 2.11594 72.4447 2.5057 72.7267 2.8611C72.9117 3.09351 73.1375 3.2789 73.3777 3.45072C74.056 3.93453 74.6345 4.51873 75.1269 5.18883C75.5259 5.73053 75.845 6.31381 76.0355 6.96221C76.1778 7.44603 76.2268 7.93798 76.1261 8.43626C75.9974 9.0711 75.6401 9.56215 75.1269 9.94287C74.6844 10.2711 74.2029 10.5361 73.7024 10.7658C72.4075 11.3618 71.0492 11.7633 69.6609 12.0717C69.2284 12.1675 68.7932 12.2489 68.3588 12.3366C68.221 12.3647 68.2201 12.3647 68.2201 12.5003C68.2201 12.6025 68.2201 12.7047 68.2246 12.806C68.2265 12.8512 68.2373 12.8955 68.2464 12.9579C68.3035 12.9407 68.347 12.9308 68.3888 12.9154C68.8403 12.7562 69.3028 12.6441 69.7806 12.5971C70.292 12.5473 70.7917 12.5971 71.2859 12.7345C72.0684 12.9525 72.8255 13.2337 73.5509 13.5982C73.6217 13.6334 73.7015 13.6578 73.7577 13.7365C73.7287 13.7646 73.7051 13.7935 73.677 13.8161C72.938 14.4039 72.1337 14.8751 71.2333 15.1744C70.6955 15.3525 70.1442 15.4511 69.5757 15.4376C69.1631 15.4276 68.7623 15.3607 68.3743 15.2205C68.3316 15.2051 68.2872 15.1934 68.2237 15.1735C68.2147 15.2684 68.2047 15.3471 68.2002 15.4258C68.182 15.774 68.1748 16.1221 68.1458 16.4694C68.0904 17.1422 68.036 17.8159 67.9599 18.4869C67.871 19.2728 67.7305 20.0505 67.5355 20.8183C67.3161 21.6855 67.0186 22.5266 66.6777 23.3531C66.2987 24.2692 65.8553 25.1554 65.4209 26.0462C64.9884 26.9324 64.5559 27.8196 64.1859 28.7347C63.7507 29.8127 63.3952 30.9169 63.1314 32.0491C62.8847 33.1063 62.7125 34.1752 62.5919 35.2531C62.4694 36.3492 62.4187 37.447 62.4495 38.5494C62.4703 39.2973 62.5302 40.0433 62.639 40.784C62.7514 41.5536 62.882 42.3204 62.9908 43.09C63.038 43.4255 63.0516 43.7664 63.0797 44.1047C63.0824 44.1381 63.0806 44.1725 63.0788 44.2068C63.0733 44.309 63.0607 44.319 62.9546 44.3226C62.9337 44.3235 62.9119 44.3235 62.8911 44.3217C62.4232 44.3 61.9553 44.2774 61.4874 44.2557C61.287 44.2466 61.0875 44.2358 60.8871 44.2276C60.3639 44.2068 59.8398 44.187 59.3166 44.1671C59.2831 44.1661 59.2477 44.1643 59.2151 44.158C59.1244 44.139 59.0881 44.0839 59.1063 43.9907C59.1462 43.7863 59.1951 43.5838 59.2269 43.3785C59.2795 43.0339 59.323 42.6885 59.3665 42.3439C59.4191 41.9252 59.4155 41.5029 59.3964 41.0833C59.3729 40.538 59.284 40.0026 59.0809 39.4899C58.934 39.12 58.7164 38.7981 58.4371 38.5186C57.8921 37.9742 57.3463 37.4307 56.7977 36.8899C56.1185 36.2207 55.4158 35.576 54.782 34.8625C54.6215 34.6816 54.4709 34.4908 54.324 34.2982C54.1699 34.0956 54.072 33.8677 54.0293 33.6145C53.8906 32.8033 53.867 31.9921 54.0212 31.18C54.0729 30.9078 54.1536 30.6438 54.256 30.386C54.2696 30.3517 54.2805 30.3164 54.3023 30.2567C54.256 30.2811 54.2297 30.2902 54.2098 30.3065C53.9196 30.5407 53.6721 30.8147 53.459 31.1194C53.0691 31.6765 52.8034 32.2896 52.6266 32.9435C52.5069 33.3875 52.4289 33.8397 52.3899 34.2982C52.3781 34.4401 52.3546 34.4591 52.2131 34.4817C51.0924 34.6581 49.9625 34.6536 48.8336 34.6246C48.276 34.6101 47.7192 34.5713 47.1625 34.5242C46.6275 34.479 46.0952 34.4112 45.562 34.3524C45.455 34.3407 45.4315 34.2954 45.4686 34.1824C45.5267 34.0042 45.5901 33.8279 45.6418 33.6488C45.7334 33.3341 45.8023 33.014 45.8159 32.6848C45.8177 32.6441 45.8159 32.6025 45.8159 32.5411C45.7452 32.5926 45.7253 32.655 45.6944 32.7065C45.3598 33.2645 45.0334 33.827 44.6915 34.3804C44.3252 34.9737 43.9417 35.557 43.5046 36.1023C43.3749 36.2642 43.2353 36.4206 43.0893 36.5689C42.8726 36.7896 42.5951 36.9126 42.314 37.0274C41.8162 37.23 41.303 37.3873 40.7898 37.5429C39.8195 37.8368 38.8484 38.128 37.8809 38.4309C37.4257 38.5738 36.9787 38.7429 36.5516 38.9572C36.2995 39.0838 36.0583 39.2258 35.8688 39.4411C35.6575 39.6816 35.536 39.9628 35.4753 40.2721C35.3773 40.7695 35.4109 41.2705 35.4535 41.7706C35.4961 42.2734 35.5823 42.7735 35.5696 43.2817C35.5687 43.3242 35.5705 43.3667 35.5659 43.4092C35.5551 43.5177 35.5215 43.5503 35.4136 43.5557C35.0346 43.5756 34.6565 43.5919 34.2774 43.6127C33.737 43.6425 33.1975 43.676 32.6571 43.704C32.2191 43.7276 31.7802 43.7456 31.3423 43.7664C31.3296 43.7673 31.3169 43.7673 31.3042 43.7673C31.1645 43.7664 31.1337 43.733 31.1627 43.5991C31.248 43.2094 31.3323 42.8196 31.4239 42.4307C31.5037 42.0925 31.5916 41.7552 31.6805 41.4188C31.8528 40.7614 32.0432 40.1093 32.2617 39.4655C32.444 38.9301 32.6425 38.4011 32.891 37.8928C32.91 37.8549 32.9309 37.8178 32.9481 37.7789C33.0134 37.6315 33.1159 37.5194 33.2483 37.4235C33.5974 37.1712 33.8694 36.8438 34.1178 36.4966C34.5105 35.9449 34.7997 35.3408 35.0291 34.706C35.2404 34.1209 35.3936 33.5204 35.5043 32.9091C35.5605 32.5953 35.6194 32.2824 35.6757 31.9686C35.682 31.9116 35.6856 31.8574 35.6938 31.7778ZM61.7703 10.8915C61.7749 10.9195 61.774 10.9286 61.7776 10.9358C61.7867 10.9503 61.7957 10.9648 61.8075 10.9765C62.1276 11.3066 62.4803 11.5905 62.9192 11.7479C63.2892 11.8808 63.6627 11.8845 64.03 11.7389C64.4163 11.5851 64.7173 11.3211 64.9612 10.9892C64.973 10.9729 64.9784 10.9521 64.9957 10.9159C64.9413 10.906 64.8986 10.8942 64.8551 10.8924C64.6384 10.8834 64.4217 10.8734 64.205 10.8698C63.5711 10.859 62.9373 10.849 62.3026 10.8427C62.1584 10.8409 62.0133 10.8544 61.8692 10.8644C61.8383 10.8662 61.8066 10.8807 61.7703 10.8915Z" fill="url(#paint0_linear_1543_3539)"/>
<path id="Vector_31" d="M69.8351 31.6847C69.7689 31.6928 69.7272 31.6946 69.6873 31.7036C68.9048 31.8818 68.1105 31.9198 67.3116 31.9062C66.5989 31.8945 65.8916 31.8284 65.1889 31.7054C65.1345 31.6955 65.0792 31.691 65.0248 31.6792C64.9069 31.6548 64.8833 31.6232 64.8833 31.5065C64.8824 31.2632 64.9132 31.0227 64.9586 30.7848C65.1236 29.9294 65.4165 29.1146 65.7502 28.3133C65.8055 28.1804 65.8173 28.1777 65.9633 28.2175C66.5064 28.3622 67.0486 28.5132 67.5936 28.6479C68.3589 28.8369 69.1315 28.9925 69.9131 29.0983C70.3855 29.1625 70.8588 29.2276 71.334 29.2656C71.83 29.3054 72.3287 29.337 72.8274 29.3072C73.0278 29.2954 73.0323 29.3144 73.0169 29.5143C72.997 29.772 72.9798 30.0325 72.9861 30.2902C73.0006 30.8934 73.0233 31.4966 73.0559 32.0988C73.084 32.6161 73.1303 33.1325 73.1711 33.6497C73.2064 34.1028 73.2454 34.5559 73.2835 35.009C73.2935 35.1274 73.3071 35.2459 73.3189 35.3643C73.3343 35.5298 73.3198 35.5461 73.1484 35.5452C72.5345 35.5398 71.9352 35.4439 71.3512 35.2567C70.7519 35.065 70.1824 34.8082 69.6601 34.4546C69.6211 34.4284 69.5821 34.4021 69.545 34.3741C69.4797 34.3244 69.4507 34.2602 69.4579 34.1743C69.4951 33.7384 69.5359 33.3025 69.6175 32.872C69.6819 32.5338 69.7454 32.1965 69.8088 31.8583C69.8197 31.8094 69.8242 31.7597 69.8351 31.6847Z" fill="url(#paint1_linear_1543_3539)"/>
<path id="Vector_32" d="M45.6137 36.928C45.6473 36.9822 45.6699 37.0085 45.6817 37.0383C45.9955 37.8088 46.4171 38.5223 46.8496 39.2295C47.6648 40.5607 48.5516 41.8439 49.462 43.1108C49.4765 43.1316 49.4946 43.1506 49.5064 43.1723C49.5409 43.2357 49.5101 43.3035 49.4411 43.3188C49.4248 43.3225 49.4076 43.3225 49.3904 43.3234C49.1646 43.3324 48.9397 43.3478 48.7139 43.3505C47.867 43.3604 47.0192 43.3731 46.1714 43.3704C45.6518 43.3686 45.1331 43.3378 44.6136 43.3243C44.5256 43.3216 44.4785 43.2809 44.454 43.2058C44.4213 43.109 44.3923 43.0114 44.3624 42.9137C43.9145 41.4333 43.4656 39.9539 43.0177 38.4735C43.0113 38.4536 43.005 38.4328 43.0004 38.412C42.9778 38.3089 42.9896 38.2863 43.092 38.2546C43.433 38.1488 43.7757 38.0484 44.1167 37.9399C44.3842 37.8549 44.6489 37.7609 44.9155 37.674C45.0289 37.637 45.1214 37.571 45.193 37.4787C45.3045 37.334 45.4115 37.1857 45.5212 37.0401C45.5457 37.0076 45.572 36.9777 45.6137 36.928Z" fill="url(#paint2_linear_1543_3539)"/>
</g>
</g>
</g>
<defs>
<linearGradient id="paint0_linear_1543_3539" x1="52.6785" y1="0.0139229" x2="52.6785" y2="44.3185" gradientUnits="userSpaceOnUse">
<stop offset="0.3186" stop-color="#DAC556"/>
<stop offset="0.4171" stop-color="#D0BD58"/>
<stop offset="0.585" stop-color="#B5A95D"/>
<stop offset="0.8003" stop-color="#898966"/>
<stop offset="1" stop-color="#5B6670"/>
</linearGradient>
<linearGradient id="paint1_linear_1543_3539" x1="69.1046" y1="28.1956" x2="69.1046" y2="35.5445" gradientUnits="userSpaceOnUse">
<stop stop-color="#DAC556"/>
<stop offset="0.1029" stop-color="#C2B35B"/>
<stop offset="0.2853" stop-color="#9D9762"/>
<stop offset="0.4681" stop-color="#808268"/>
<stop offset="0.649" stop-color="#6B736C"/>
<stop offset="0.8274" stop-color="#5F696F"/>
<stop offset="1" stop-color="#5B6670"/>
</linearGradient>
<linearGradient id="paint2_linear_1543_3539" x1="46.2566" y1="36.9276" x2="46.2566" y2="43.3704" gradientUnits="userSpaceOnUse">
<stop stop-color="#DAC556"/>
<stop offset="0.1029" stop-color="#C2B35B"/>
<stop offset="0.2853" stop-color="#9D9762"/>
<stop offset="0.4681" stop-color="#808268"/>
<stop offset="0.649" stop-color="#6B736C"/>
<stop offset="0.8274" stop-color="#5F696F"/>
<stop offset="1" stop-color="#5B6670"/>
</linearGradient>
<clipPath id="clip0_1543_3539">
<rect width="106" height="69" fill="white"/>
</clipPath>
</defs>
</svg>
