<svg width="101" height="60" viewBox="0 0 101 60" fill="none" xmlns="http://www.w3.org/2000/svg">
<g clip-path="url(#clip0_1577_1876)">
<path d="M27.1695 46.0512C27.1695 53.7476 21.0944 59.9999 13.5767 59.9999C6.05904 59.9999 0 53.7476 0 46.0512C0 38.3549 6.07507 32.1025 13.5928 32.1025C21.1105 32.1025 27.1855 38.3549 27.1855 46.0512" fill="#EB224D"/>
<path fill-rule="evenodd" clip-rule="evenodd" d="M43.0709 8.26903C41.7084 3.68295 39.4323 0.112463 31.7703 0.00138088C24.5412 -0.109701 17.3601 6.49173 18.5462 15.9337C19.7965 25.8993 27.3302 24.1696 33.5015 28.3272C41.3398 33.6115 35.7776 41.8157 37.5248 50.7499C40.394 65.3492 64.6462 61.8739 63.6845 45.9416C63.6845 46.2272 63.7005 45.6718 63.6845 45.9416C63.6845 41.3238 60.7672 37.4042 56.6637 35.849C56.5675 35.8014 49.8352 32.5801 48.9536 32.0564C43.2793 28.6446 43.68 20.7102 43.5678 13.8549C43.5678 13.8549 43.7922 10.7763 43.0549 8.2849" fill="#EB224D"/>
<path fill-rule="evenodd" clip-rule="evenodd" d="M80.3542 8.26903C79.0078 3.68295 76.7316 0.112463 69.0696 0.00138088C61.8405 -0.109701 54.6594 6.49173 55.8456 15.9337C57.0958 25.8993 64.6296 24.1696 70.8008 28.3272C78.6391 33.6115 73.0769 41.8157 74.8241 50.7499C77.6934 65.3492 101.946 61.8739 100.984 45.9416C100.984 46.2272 101 45.6718 100.984 45.9416C100.984 41.3238 98.0665 37.4042 93.963 35.849C93.8668 35.8014 87.1346 32.5801 86.253 32.0564C80.5786 28.6446 80.9793 20.7102 80.8671 13.8549C80.8671 13.8549 81.0916 10.7763 80.3542 8.2849" fill="#EB224D"/>
</g>
<defs>
<clipPath id="clip0_1577_1876">
<rect width="101" height="60" fill="white"/>
</clipPath>
</defs>
</svg>
