<?xml version="1.0" encoding="UTF-8"?>
<svg xmlns="http://www.w3.org/2000/svg" version="1.1" viewBox="0 0 153.82 47.93">
  <defs>
    <style>
      .cls-1 {
        fill-rule: evenodd;
      }

      .cls-1, .cls-2 {
        fill: #eb224d;
      }
    </style>
  </defs>
  <!-- Generator: Adobe Illustrator 28.6.0, SVG Export Plug-In . SVG Version: 1.2.0 Build 709)  -->
  <g>
    <g id="Layer_1">
      <g>
        <g>
          <path class="cls-2" d="M16.95,31.35c0,4.85-3.79,8.79-8.48,8.79S0,36.21,0,31.35s3.79-8.79,8.48-8.79,8.48,3.94,8.48,8.79"/>
          <path class="cls-1" d="M26.87,7.55c-.85-2.89-2.27-5.14-7.05-5.21-4.51-.07-8.99,4.09-8.25,10.04.78,6.28,5.48,5.19,9.33,7.81,4.89,3.33,1.42,8.5,2.51,14.13,1.79,9.2,16.92,7.01,16.32-3.03.01-.17,0,.18,0,0,0-2.91-1.82-5.38-4.38-6.36-.06-.03-4.26-2.06-4.81-2.39-3.54-2.15-3.29-7.15-3.36-11.47,0,0,.14-1.94-.32-3.51"/>
          <path class="cls-1" d="M50.13,7.55c-.85-2.89-2.27-5.14-7.05-5.21-4.51-.07-8.99,4.09-8.25,10.04.78,6.28,5.48,5.19,9.33,7.81,4.89,3.33,1.42,8.5,2.51,14.13,1.79,9.2,16.92,7.01,16.32-3.03.01-.17,0,.18,0,0,0-2.91-1.82-5.38-4.38-6.36-.06-.03-4.26-2.06-4.81-2.39-3.54-2.15-3.29-7.15-3.36-11.47,0,0,.14-1.94-.32-3.51"/>
        </g>
        <g>
          <path class="cls-2" d="M73.1,43.89h-1.41v3.92c-.14.02-.27.04-.41.04-.13,0-.27-.02-.41-.04v-3.92h-1.41c-.03-.12-.04-.25-.04-.37s.01-.25.04-.37h3.64c.03.12.04.25.04.37s-.01.24-.04.37Z"/>
          <path class="cls-2" d="M78.54,43.16v4.65c-.13.03-.25.04-.39.04s-.28-.01-.44-.04v-1.99h-2.2v1.99c-.14.03-.28.04-.41.04-.13,0-.26-.01-.41-.04v-4.65c.13-.04.26-.04.39-.04.15,0,.29,0,.43.04v1.91h2.2v-1.91c.15-.03.28-.04.41-.04s.28.01.41.04Z"/>
          <path class="cls-2" d="M83.65,47.42c0,.13-.01.26-.05.38h-3.05v-4.66h2.98c.03.12.04.25.04.38,0,.13-.01.25-.04.37h-2.16v1.15h1.92c.03.12.04.25.04.37s-.01.24-.04.37h-1.92v1.28h2.23c.04.12.05.24.05.36Z"/>
          <path class="cls-2" d="M91.54,47.75c-.16.06-.33.08-.51.08-.11,0-.24,0-.34-.03l-.41-1.12h-1.83l-.4,1.12c-.12.02-.25.03-.37.03-.17,0-.33-.02-.46-.08l1.73-4.61c.14-.04.29-.04.43-.04.15,0,.28,0,.41.04l1.75,4.61ZM90.01,45.99l-.54-1.45-.13-.43-.13.43-.52,1.45h1.32Z"/>
          <path class="cls-2" d="M96.6,47.76c-.18.05-.41.07-.65.07-.08,0-.19,0-.26-.01l-1.04-1.73h-.11c-.22,0-.45,0-.68-.01v1.73c-.14.03-.27.04-.41.04s-.27-.01-.41-.04v-4.58c.43-.09.99-.15,1.49-.15,1.29,0,1.85.57,1.85,1.44,0,.7-.37,1.16-.91,1.4l1.14,1.85ZM94.56,45.39c.7,0,.97-.36.97-.83s-.31-.78-.98-.78c-.24,0-.47.01-.7.04v1.56c.24.01.48.01.7.01Z"/>
          <path class="cls-2" d="M101.32,43.89h-1.41v3.92c-.14.02-.27.04-.41.04-.13,0-.27-.02-.41-.04v-3.92h-1.41c-.03-.12-.04-.25-.04-.37s.01-.25.04-.37h3.64c.03.12.04.25.04.37s-.01.24-.04.37Z"/>
          <path class="cls-2" d="M104.92,45.47c0-1.41.99-2.46,2.38-2.46s2.38,1.01,2.38,2.46-.99,2.45-2.38,2.45-2.38-1.02-2.38-2.45ZM108.79,45.47c0-1.02-.59-1.69-1.49-1.69s-1.49.67-1.49,1.69.59,1.68,1.49,1.68,1.49-.69,1.49-1.68Z"/>
          <path class="cls-2" d="M112.23,43.9v1.35h1.89c.03.12.04.25.04.37s0,.25-.04.37h-1.89v1.81c-.14.03-.27.04-.41.04-.13,0-.27-.01-.41-.04v-4.66h2.95c.03.12.04.25.04.38s0,.25-.04.38h-2.13Z"/>
          <path class="cls-2" d="M121.37,43.89h-1.41v3.92c-.14.02-.27.04-.41.04-.13,0-.27-.02-.41-.04v-3.92h-1.41c-.03-.12-.04-.25-.04-.37s.01-.25.04-.37h3.64c.03.12.04.25.04.37s-.01.24-.04.37Z"/>
          <path class="cls-2" d="M126.06,47.42c0,.13-.01.26-.05.38h-3.05v-4.66h2.98c.03.12.04.25.04.38,0,.13-.01.25-.04.37h-2.16v1.15h1.92c.03.12.04.25.04.37s-.01.24-.04.37h-1.92v1.28h2.23c.04.12.05.24.05.36Z"/>
          <path class="cls-2" d="M130.68,47.43c0,.12-.01.25-.04.38h-2.85v-4.66c.14-.03.27-.04.41-.04s.28.01.41.04v3.92h2.03c.03.12.04.24.04.36Z"/>
          <path class="cls-2" d="M135.33,47.42c0,.13-.01.26-.05.38h-3.05v-4.66h2.98c.03.12.04.25.04.38,0,.13-.01.25-.04.37h-2.16v1.15h1.92c.03.12.04.25.04.37s-.01.24-.04.37h-1.92v1.28h2.23c.04.12.05.24.05.36Z"/>
          <path class="cls-2" d="M136.69,45.48c0-1.44,1.02-2.47,2.39-2.47.65,0,1.11.19,1.43.44-.04.25-.22.52-.45.65-.3-.2-.59-.3-.96-.3-.88,0-1.52.64-1.52,1.69s.65,1.68,1.49,1.68c.54,0,.83-.14,1.07-.35.26.15.38.33.44.65-.28.23-.73.48-1.53.48-1.42,0-2.35-1.01-2.35-2.45Z"/>
          <path class="cls-2" d="M141.74,45.47c0-1.41.99-2.46,2.38-2.46s2.38,1.01,2.38,2.46-.99,2.45-2.38,2.45-2.38-1.02-2.38-2.45ZM145.61,45.47c0-1.02-.59-1.69-1.49-1.69s-1.49.67-1.49,1.69.59,1.68,1.49,1.68,1.49-.69,1.49-1.68Z"/>
          <path class="cls-2" d="M152.84,43.17v4.63c-.15.03-.26.04-.38.04-.13,0-.25-.01-.4-.04v-2.55l.04-.67-.12.35-1.06,2.45c-.14.02-.25.03-.36.03-.1,0-.21,0-.36-.03l-1.1-2.47-.13-.33.03.67v2.55c-.13.03-.27.04-.38.04-.13,0-.24-.01-.38-.04v-4.63c.12-.03.25-.06.44-.06.13,0,.26,0,.4.04l1.44,3.14.09.23.07-.23,1.35-3.14c.13-.02.22-.03.39-.03.14,0,.28.01.44.05Z"/>
        </g>
        <path d="M91.57,8.57v8.57c-.72.11-1.43.17-2.15.17s-1.43-.06-2.15-.17v-7.62c0-1.69-.8-2.58-2.41-2.58-1.09,0-1.78.4-2.29.77.03.29.06.57.06.86v8.57c-.72.11-1.43.17-2.15.17s-1.43-.06-2.12-.17v-7.62c0-1.69-.83-2.58-2.44-2.58-.95,0-1.69.26-2.21.57v9.63c-.72.11-1.43.17-2.15.17s-1.4-.06-2.12-.17V5.33c.97-.83,3.52-2.26,6.88-2.26,1.92,0,3.41.49,4.44,1.29,1.09-.69,2.66-1.29,4.5-1.29,4.27,0,6.3,2.32,6.3,5.5Z"/>
        <path d="M93.78,10.34c0-4.38,3.15-7.28,7.48-7.28s7.42,2.84,7.42,7.28-3.15,7.25-7.48,7.25-7.42-2.75-7.42-7.25ZM104.38,10.34c0-2.24-1.15-3.7-3.15-3.7s-3.18,1.46-3.18,3.7,1.17,3.7,3.18,3.7,3.15-1.49,3.15-3.7Z"/>
        <path d="M124.38,8.88v8.25c-.72.11-1.43.17-2.15.17s-1.43-.06-2.15-.17v-7.56c0-1.95-1.06-2.64-2.58-2.64-1,0-1.81.29-2.29.57v9.63c-.72.11-1.43.17-2.15.17s-1.4-.06-2.12-.17V5.33c1.06-.95,3.5-2.26,6.88-2.26,4.53,0,6.56,2.46,6.56,5.82Z"/>
        <path d="M138.33,16.04c-.97.77-2.35,1.52-4.41,1.52-3.12,0-5.47-1.32-5.47-4.64v-5.67h-2.32c-.09-.54-.14-1.15-.14-1.78,0-.57.06-1.15.14-1.72h2.32V.17c.75-.11,1.46-.17,2.18-.17s1.4.06,2.06.17v3.58h4.76c.11.54.2,1.12.2,1.69,0,.63-.09,1.2-.2,1.8h-4.76v4.61c0,1.55.72,2.06,1.98,2.06.8,0,1.43-.4,1.89-.8.83.49,1.63,1.78,1.78,2.92Z"/>
        <path d="M153.82,3.81c-1.17,8.68-4.5,15.07-10.63,19.45-1.32-.46-2.18-1.72-2.55-2.95,1.52-1.2,2.87-2.44,3.72-3.61-2.78-4.3-4.04-8.02-5.1-12.92.6-.14,1.92-.32,3.12-.32.52,0,1.12.03,1.6.09.52,3.15,1.46,6.53,2.64,9.25.14.32.23.57.29.77.06-.29.14-.57.23-.77,1.17-2.75,1.83-6.1,2.23-9.25.54-.06,1.15-.09,1.69-.09,1,0,1.98.14,2.75.34Z"/>
        <path d="M124.58,32.22c0,4.53-3.06,7.25-7.9,7.25-2.22,0-4.36-.48-5.9-1.29v-17.63c.7-.14,1.41-.17,2.08-.17s1.41.03,2.11.17v5.09c.65-.22,1.38-.34,2.28-.34,4.19,0,7.34,2.39,7.34,6.92ZM120.37,32.39c0-2.02-1.21-3.49-3.4-3.49-.7,0-1.38.11-2,.34v6.38c.73.22,1.38.31,2,.31,2.16,0,3.4-1.38,3.4-3.54Z"/>
        <path d="M126.17,21.43c0-1.38,1.12-2.5,2.53-2.5s2.53,1.12,2.53,2.5-1.15,2.53-2.53,2.53-2.53-1.15-2.53-2.53ZM126.59,39.03v-13.35c.67-.11,1.38-.17,2.08-.17s1.38.06,2.11.17v13.35c-.67.11-1.38.17-2.11.17-.67,0-1.38-.06-2.08-.17Z"/>
        <path d="M133.47,39.03v-18.41c.65-.11,1.35-.17,2.05-.17s1.43.06,2.16.17v18.41c-.65.11-1.38.17-2.08.17s-1.41-.06-2.14-.17Z"/>
        <path d="M153.17,33.31h-9.02c.26,1.91,1.31,2.77,3.34,2.77,1.71,0,2.94-.69,4-1.37.88.69,1.43,1.83,1.54,2.88-1.2.91-3.06,1.91-6,1.91-4.2,0-7.22-2.6-7.22-7.14,0-4.28,3.03-7.28,7.08-7.28,3.83,0,6.42,2.43,6.42,6.22,0,.69-.03,1.31-.14,2ZM149.29,30.91c0-1.31-.63-2.51-2.37-2.6-1.63,0-2.57,1.06-2.77,2.6h5.14Z"/>
        <path d="M91.57,30.59v8.57c-.72.11-1.43.17-2.15.17s-1.43-.06-2.15-.17v-7.62c0-1.69-.8-2.58-2.41-2.58-1.09,0-1.78.4-2.29.77.03.29.06.57.06.86v8.57c-.72.11-1.43.17-2.15.17s-1.43-.06-2.12-.17v-7.62c0-1.69-.83-2.58-2.44-2.58-.95,0-1.69.26-2.21.57v9.63c-.72.11-1.43.17-2.15.17s-1.4-.06-2.12-.17v-11.8c.97-.83,3.52-2.26,6.88-2.26,1.92,0,3.41.49,4.44,1.29,1.09-.69,2.66-1.29,4.5-1.29,4.27,0,6.3,2.32,6.3,5.5Z"/>
        <path d="M93.78,32.37c0-4.38,3.15-7.28,7.48-7.28s7.42,2.84,7.42,7.28-3.15,7.25-7.48,7.25-7.42-2.75-7.42-7.25ZM104.38,32.37c0-2.24-1.15-3.7-3.15-3.7s-3.18,1.46-3.18,3.7,1.17,3.7,3.18,3.7,3.15-1.49,3.15-3.7Z"/>
      </g>
    </g>
  </g>
</svg>