<svg width="147" height="27" viewBox="0 0 147 27" fill="none" xmlns="http://www.w3.org/2000/svg">
<g id="a" clip-path="url(#clip0_1543_3524)">
<g id="Group">
<g id="Group_2">
<path id="Vector" d="M126.981 22.2803H121.512V4.40308H126.981V22.2803Z" fill="#8B9092"/>
<path id="Vector_2" d="M120.168 4.55348C121.216 4.83857 122.277 5.3929 123.346 6.21648C124.418 7.04006 125.231 8.08142 125.791 9.34055C126.35 10.5997 126.626 11.8786 126.626 13.1852C126.626 14.4919 126.382 15.7075 125.893 16.8399C125.404 17.9723 124.718 18.9464 123.843 19.7581C122.967 20.5698 121.958 21.1954 120.818 21.627C119.679 22.0625 118.484 22.2803 117.23 22.2803C116.295 22.2803 115.298 22.1377 114.241 21.8526C113.18 21.5676 112.112 21.0132 111.027 20.1896C109.947 19.3661 109.123 18.3208 108.567 17.0497C108.007 15.7787 107.731 14.4919 107.731 13.1892C107.731 11.8865 107.975 10.6709 108.464 9.5504C108.953 8.42986 109.639 7.46373 110.515 6.64807C111.39 5.83637 112.411 5.21076 113.575 4.77918C114.738 4.34363 115.956 4.12585 117.23 4.12585C118.141 4.12585 119.123 4.2684 120.168 4.55348ZM118.937 17.2358C119.576 16.9626 120.14 16.4598 120.629 15.7273C121.118 14.9948 121.362 14.1474 121.362 13.1892C121.362 11.9063 120.948 10.8452 120.116 9.99783C119.284 9.15049 118.322 8.72682 117.23 8.72682C116.548 8.72682 115.862 8.90896 115.18 9.2772C114.497 9.64147 113.961 10.1879 113.575 10.9085C113.188 11.6292 112.995 12.3894 112.995 13.1892C112.995 14.1514 113.24 14.9987 113.728 15.7273C114.217 16.4598 114.793 16.9626 115.456 17.2358C116.118 17.509 116.709 17.6476 117.234 17.6476C117.758 17.6476 118.306 17.509 118.941 17.2358H118.937Z" fill="#8B9092"/>
</g>
<path id="Vector_3" d="M137.328 26.9521H131.555L134.256 20.6882L127.316 4.40662H133.053L137.024 14.2223L141.263 4.40662H147L137.324 26.9521H137.328Z" fill="#8B9092"/>
<path id="Vector_4" d="M107.518 5.07596C107.115 4.07024 106.536 3.2031 105.771 2.47059C105.006 1.73808 104.083 1.17583 102.999 0.787792C101.914 0.395799 100.728 0.201782 99.4303 0.201782H94.8168L88.2476 15.4935V27.0038H94.0755V16.6932H99.1819C101.891 16.6932 104.056 15.9369 105.68 14.4244C107.305 12.9119 108.117 10.9004 108.117 8.39404C108.117 7.18638 107.916 6.08168 107.518 5.07596ZM101.406 10.8727C100.747 11.4864 99.864 11.7953 98.756 11.7953H94.0716V5.1987H98.756C99.864 5.1987 100.747 5.50754 101.406 6.12127C102.064 6.735 102.396 7.51502 102.396 8.46135C102.396 9.45519 102.064 10.259 101.406 10.8727Z" fill="#8B9092"/>
</g>
<g id="Group_3">
<path id="Vector_5" d="M40.3027 5.74531C39.2814 4.92569 38.272 4.37135 37.2744 4.09023C36.2768 3.80514 35.3422 3.6626 34.4747 3.6626C33.2603 3.6626 32.097 3.88037 30.993 4.31196C29.8849 4.74355 28.9149 5.36519 28.079 6.17294C27.243 6.98068 26.5924 7.94284 26.1271 9.05943C25.6618 10.176 25.4292 11.3837 25.4292 12.6824C25.4292 13.9811 25.6934 15.26 26.2257 16.5271C26.758 17.7902 27.5388 18.8315 28.5679 19.6551C29.5971 20.4747 30.6184 21.0291 31.6278 21.3102C32.6372 21.5953 33.5875 21.7378 34.4747 21.7378C35.6695 21.7378 36.8091 21.5201 37.8934 21.0885C38.9778 20.6569 39.9399 20.0352 40.7759 19.2275C41.6118 18.4197 42.2624 17.4497 42.7277 16.3252C43.193 15.1967 43.4257 13.9851 43.4257 12.6864C43.4257 11.3876 43.1615 10.1127 42.6291 8.86145C42.0968 7.61024 41.32 6.57285 40.3027 5.75323V5.74531ZM37.716 14.9591C37.2507 15.6164 36.7105 16.0678 36.1033 16.3133C35.496 16.5588 34.9519 16.6815 34.4747 16.6815C33.9976 16.6815 33.4101 16.5588 32.7831 16.3133C32.1522 16.0678 31.6041 15.6164 31.1389 14.9591C30.6736 14.3018 30.4409 13.5416 30.4409 12.6784C30.4409 11.9618 30.6262 11.2768 30.993 10.6314C31.3636 9.98596 31.8723 9.49894 32.5229 9.1703C33.1735 8.84166 33.8241 8.67932 34.4747 8.67932C35.5157 8.67932 36.4345 9.05943 37.2231 9.81966C38.0157 10.5799 38.41 11.5341 38.41 12.6824C38.41 13.5456 38.1773 14.3058 37.7121 14.9631L37.716 14.9591Z" fill="url(#paint0_linear_1543_3524)"/>
<path id="Vector_6" d="M58.9852 6.71537C58.4213 6.11748 57.7471 5.65422 56.9663 5.32558C56.1856 4.99694 55.3299 4.83459 54.3954 4.83459C53.3978 4.83459 52.4633 5.01277 51.5958 5.37309C50.7283 5.73341 49.9909 6.24023 49.3837 6.89355V5.32558H44.1748V21.7338H49.3837V14.1197C49.3837 12.5953 49.6834 11.451 50.2788 10.6868C50.8742 9.92258 51.7062 9.54247 52.7669 9.54247C53.3741 9.54247 53.9065 9.71669 54.3599 10.0651C54.8173 10.4136 55.1288 10.8372 55.3023 11.3401C55.4758 11.843 55.5626 12.3221 55.5626 12.7774V21.7338H60.736V11.6687C60.736 10.667 60.5822 9.74045 60.2786 8.88915C59.9749 8.03785 59.5412 7.31326 58.9773 6.71537H58.9852Z" fill="url(#paint1_linear_1543_3524)"/>
<path id="Vector_7" d="M86.0114 0.19812L79.8049 14.5791L75.9288 5.00102H70.3335L77.1039 20.8866L74.4659 27.0001H80.0967L91.6106 0.19812H86.0114Z" fill="url(#paint2_linear_1543_3524)"/>
<path id="Vector_8" d="M68.6858 14.674V9.22569H72.14L70.3538 5.00484H68.6819V0H63.473V5.00484H60.5117V9.22569H63.473V15.1967C63.473 17.311 64.0408 18.9265 65.1804 20.051C66.32 21.1716 67.9209 21.7338 69.9831 21.7338C70.9255 21.7338 74.1431 21.5675 75.0895 21.2428L73.4649 17.2041C73.2362 17.2992 68.6819 18.3484 68.6819 14.678L68.6858 14.674Z" fill="url(#paint3_linear_1543_3524)"/>
<path id="Vector_9" d="M24.5263 21.7378H19.4515V10.362L13.4855 21.7378H11.0723L5.07481 10.2987V21.7378H0V0.391968H5.14185L12.2789 13.9335L19.4199 0.391968H24.5263V21.7378Z" fill="url(#paint4_linear_1543_3524)"/>
</g>
</g>
<defs>
<linearGradient id="paint0_linear_1543_3524" x1="25.4292" y1="12.6982" x2="43.4296" y2="12.6982" gradientUnits="userSpaceOnUse">
<stop stop-color="#003383"/>
<stop offset="1" stop-color="#003399"/>
</linearGradient>
<linearGradient id="paint1_linear_1543_3524" x1="44.1787" y1="13.2842" x2="60.7439" y2="13.2842" gradientUnits="userSpaceOnUse">
<stop stop-color="#003383"/>
<stop offset="1" stop-color="#003399"/>
</linearGradient>
<linearGradient id="paint2_linear_1543_3524" x1="70.3335" y1="13.6011" x2="91.6106" y2="13.6011" gradientUnits="userSpaceOnUse">
<stop stop-color="#003383"/>
<stop offset="1" stop-color="#003399"/>
</linearGradient>
<linearGradient id="paint3_linear_1543_3524" x1="60.5157" y1="10.8689" x2="75.0974" y2="10.8689" gradientUnits="userSpaceOnUse">
<stop stop-color="#003383"/>
<stop offset="1" stop-color="#003399"/>
</linearGradient>
<linearGradient id="paint4_linear_1543_3524" x1="0" y1="11.0668" x2="24.5263" y2="11.0668" gradientUnits="userSpaceOnUse">
<stop stop-color="#003383"/>
<stop offset="1" stop-color="#003399"/>
</linearGradient>
<clipPath id="clip0_1543_3524">
<rect width="147" height="27" fill="white"/>
</clipPath>
</defs>
</svg>
