<svg width="95" height="38" viewBox="0 0 95 38" fill="none" xmlns="http://www.w3.org/2000/svg">
<g id="Monty Finance Logo Black 250x100 px-01-01 1">
<path id="Vector" d="M17.4495 21.5865H12.7717V33.5262H17.4495V21.5865Z" fill="#695BF9"/>
<path id="Vector_2" d="M26.0564 26.9798C26.0564 25.6321 25.5864 24.9582 24.6466 24.9582C23.727 24.9582 23.2634 25.6308 23.2634 26.9798V33.5158H18.5894V21.5876H23.2634V23.062C23.9752 21.9144 25.0798 21.3393 26.577 21.3368C29.3484 21.3368 30.7329 23.0696 30.7304 26.5352V33.5272H26.0564V26.9798Z" fill="#695BF9"/>
<path id="Vector_3" d="M40.8799 32.0501C40.2009 33.2027 39.0609 33.7778 37.4599 33.7753C36.7048 33.7914 35.9553 33.6427 35.2635 33.3395C34.5718 33.0363 33.9545 32.5859 33.4547 32.0197C32.3677 30.7936 31.7948 29.1959 31.8549 27.5585C31.7948 25.921 32.3677 24.3234 33.4547 23.0973C33.9543 22.5306 34.5715 22.0796 35.2632 21.7758C35.9549 21.4719 36.7045 21.3225 37.4599 21.3379C39.0483 21.3379 40.1883 21.9205 40.8799 23.0859V21.5887H45.5539V33.5283H40.8799V32.0501ZM37.1483 29.4661C37.3437 29.7006 37.5883 29.8893 37.8648 30.0188C38.1412 30.1483 38.4428 30.2154 38.7481 30.2154C39.0534 30.2154 39.3549 30.1483 39.6314 30.0188C39.9078 29.8893 40.1524 29.7006 40.3479 29.4661C40.7356 28.9083 40.9434 28.2453 40.9434 27.5661C40.9434 26.8868 40.7356 26.2238 40.3479 25.6661C40.1524 25.4315 39.9078 25.2428 39.6314 25.1133C39.3549 24.9838 39.0534 24.9167 38.7481 24.9167C38.4428 24.9167 38.1412 24.9838 37.8648 25.1133C37.5883 25.2428 37.3437 25.4315 37.1483 25.6661C36.7585 26.223 36.5494 26.8863 36.5494 27.5661C36.5494 28.2458 36.7585 28.9092 37.1483 29.4661Z" fill="#695BF9"/>
<path id="Vector_4" d="M54.1617 26.9798C54.1617 25.6321 53.693 24.9582 52.7557 24.9582C51.8183 24.9582 51.3573 25.6321 51.3725 26.9798V33.5158H46.6985V21.5876H51.3725V23.062C52.0843 21.9144 53.1889 21.3393 54.6861 21.3368C57.455 21.3368 58.8395 23.0696 58.8395 26.5352V33.5272H54.1617V26.9798Z" fill="#695BF9"/>
<path id="Vector_5" d="M61.9666 23.0157C63.3481 21.793 65.1466 21.1481 66.9902 21.2145C69.0802 21.2145 70.7674 21.8339 72.0518 23.0727L69.806 25.8391C69.1286 25.2047 68.2375 24.848 67.3094 24.8397C66.9595 24.8293 66.6111 24.8892 66.2847 25.0158C65.9584 25.1425 65.6608 25.3332 65.4094 25.5769C64.9285 26.0821 64.6603 26.7528 64.6603 27.4503C64.6603 28.1478 64.9285 28.8185 65.4094 29.3237C65.6608 29.5673 65.9584 29.7581 66.2847 29.8847C66.6111 30.0114 66.9595 30.0713 67.3094 30.0609C68.2375 30.0526 69.1286 29.6959 69.806 29.0615L72.0518 31.8089C70.7674 33.0477 69.0802 33.6684 66.9902 33.6709C65.1462 33.7358 63.3477 33.0896 61.9666 31.8659C61.3416 31.3125 60.8412 30.6327 60.4985 29.8716C60.1557 29.1104 59.9785 28.2851 59.9785 27.4503C59.9785 26.6155 60.1557 25.7902 60.4985 25.029C60.8412 24.2678 61.3416 23.5881 61.9666 23.0347V23.0157Z" fill="#695BF9"/>
<path id="Vector_6" d="M73.9093 32.0199C73.2941 31.4634 72.806 30.7811 72.4781 30.0191C72.1503 29.2572 71.9904 28.4335 72.0093 27.6043C71.9973 26.7842 72.1503 25.9701 72.459 25.2102C72.7678 24.4504 73.2261 23.7603 73.8067 23.1811C75.0024 21.9575 76.6301 21.3444 78.6897 21.3419C80.4176 21.2754 82.107 21.863 83.4207 22.9873C84.6519 24.0867 85.2688 25.5662 85.2713 27.4257C85.2821 27.7851 85.2437 28.1444 85.1573 28.4935H76.3793C76.3793 28.8735 76.6605 29.2839 77.2191 29.6829C77.8791 30.114 78.6585 30.3254 79.4459 30.2871C80.6199 30.2928 81.7592 29.8898 82.6683 29.1471L84.5949 31.7349C83.2345 33.1105 81.3814 33.7983 79.0355 33.7983C76.8847 33.7831 75.176 33.1903 73.9093 32.0199ZM77.0975 25.0811C76.8862 25.2164 76.7105 25.4007 76.5855 25.6183C76.4605 25.836 76.3898 26.0805 76.3793 26.3313H81.0571C81.0452 26.0786 80.9719 25.8327 80.8434 25.6148C80.7149 25.397 80.5352 25.2137 80.3199 25.0811C79.8354 24.7829 79.2776 24.625 78.7087 24.625C78.1398 24.625 77.582 24.7829 77.0975 25.0811Z" fill="#695BF9"/>
<path id="Vector_7" d="M5.46772 15.8254H0.759521V20.5374V31.2534H5.46772V20.5374H12.2773V15.8254H5.46772Z" fill="#695BF9"/>
<path id="Vector_8" d="M10.366 21.6848H8.13544H6.59644V23.2276V25.4544" fill="#695BF9"/>
<path id="Vector_9" d="M35.0023 4.00037H37.1075L43.1305 17.1218L49.1763 4.00037H51.3005V19.5538H49.4005V7.74717H49.2903L43.8525 19.5538H42.4313L36.9973 7.74717H36.8871V19.5538H34.9871L35.0023 4.00037Z" fill="#19191B"/>
<path id="Vector_10" d="M52.4399 13.8601C52.4399 10.0601 55.4001 7.94348 58.3565 7.94348C61.3129 7.94348 64.2693 10.0487 64.2693 13.8601C64.2693 17.6715 61.3129 19.7615 58.3565 19.7615C55.4001 19.7615 52.4399 17.6715 52.4399 13.8601ZM62.4301 13.8601C62.4301 11.1659 60.4579 9.63068 58.3565 9.63068C56.2551 9.63068 54.2791 11.1507 54.2791 13.8601C54.2791 16.5695 56.2399 18.0895 58.3565 18.0895C60.4731 18.0895 62.4301 16.5543 62.4301 13.8601Z" fill="#19191B"/>
<path id="Vector_11" d="M75.5289 12.8499V19.5531H73.6897V13.0931C73.6897 10.8131 72.3293 9.60853 70.5129 9.60853C68.6965 9.60853 67.2601 10.8131 67.2601 13.1121V19.5721H65.4209V8.17212H67.2601V10.0341C67.8529 8.93972 69.0993 7.95172 71.0601 7.95172C73.4693 7.94032 75.5289 9.43372 75.5289 12.8499Z" fill="#19191B"/>
<path id="Vector_12" d="M79.7351 9.67627V16.8963C79.7351 17.5955 80.0847 18.0363 80.9397 18.0363C81.2921 18.033 81.641 17.9661 81.9695 17.8387V19.3093C81.5136 19.5883 80.9831 19.721 80.4495 19.6893C78.9295 19.6893 77.9111 18.9483 77.9111 17.2383V9.67627H76.3911V8.15627H77.9111V5.24927H79.7503V8.16387H82.0075V9.68387L79.7351 9.67627Z" fill="#19191B"/>
<path id="Vector_13" d="M94.3239 8.1604L89.4827 19.5604L87.6663 23.7138H85.8461L87.7461 19.4426L82.9353 8.1604H84.8353L88.6353 17.2804L92.4353 8.1604H94.3239Z" fill="#19191B"/>
<path id="Vector_14" d="M89.9957 29.0796V32.0018C90.0101 32.2555 89.9678 32.5093 89.8718 32.7446C89.7759 32.9799 89.6287 33.1909 89.4409 33.3622C89.055 33.6939 88.5587 33.8688 88.0501 33.8524C87.5437 33.8695 87.0495 33.6944 86.6669 33.3622C86.4798 33.1904 86.333 32.9794 86.2371 32.7442C86.1412 32.509 86.0985 32.2554 86.1121 32.0018V29.0796H87.1533V32.0018C87.1445 32.1334 87.1629 32.2655 87.2074 32.3897C87.2518 32.5139 87.3214 32.6276 87.4117 32.7238C87.4951 32.8075 87.5948 32.8733 87.7046 32.9171C87.8144 32.9609 87.932 32.9817 88.0501 32.9784C88.1697 32.9816 88.2887 32.9604 88.3998 32.9159C88.5109 32.8715 88.6117 32.8048 88.6961 32.72C88.7868 32.6247 88.8569 32.5118 88.902 32.3882C88.9471 32.2646 88.9663 32.1331 88.9583 32.0018V29.0796H89.9957Z" fill="#695BF9"/>
<path id="Vector_15" d="M91.6754 31.6294V33.7764H90.6494V29.0796H91.6754V31.2342L93.0624 29.0796H94.1302V29.2164L92.6672 31.3824L93.26 32.4236C93.3415 32.5914 93.4507 32.7443 93.583 32.8758C93.6802 32.9454 93.798 32.9802 93.9174 32.9746C94.034 32.9639 94.1462 32.9248 94.2442 32.8606L94.6242 33.5978C94.3537 33.7683 94.0395 33.8568 93.7198 33.8524C93.165 33.8524 92.7242 33.5332 92.3974 32.8986L91.6792 31.618L91.6754 31.6294Z" fill="#695BF9"/>
</g>
</svg>
